<?xml version="1.0" encoding="UTF-8"?>
<svg version="1.1" xmlns="http://www.w3.org/2000/svg" width="128" height="123">
<path d="M0 0 C42.24 0 84.48 0 128 0 C128 40.59 128 81.18 128 123 C85.76 123 43.52 123 0 123 C0 82.41 0 41.82 0 0 Z " fill="#0A0508" transform="translate(0,0)"/>
<path d="M0 0 C14 0 14 0 17.23828125 2.640625 C18.33056641 4.37060547 18.33056641 4.37060547 19.3125 6.25 C20.09549166 7.52997249 20.880697 8.80859311 21.66796875 10.0859375 C22.04743652 10.7365918 22.4269043 11.38724609 22.81787109 12.05761719 C24.70576877 15.15966467 26.90876057 18.00305545 29.125 20.875 C29.87007812 21.86242187 30.61515625 22.84984375 31.3828125 23.8671875 C31.91648437 24.57101563 32.45015625 25.27484375 33 26 C33.33 22.04 33.66 18.08 34 14 C44.56 14 55.12 14 66 14 C66 24.23 66 34.46 66 45 C61.05 45 56.1 45 51 45 C51.99 46.65 52.98 48.3 54 50 C54.12375 50.721875 54.2475 51.44375 54.375 52.1875 C54.86771525 54.30913586 54.86771525 54.30913586 57.5625 55.25 C58.366875 55.4975 59.17125 55.745 60 56 C60.721875 55.195625 61.44375 54.39125 62.1875 53.5625 C65.02515689 50.97707928 66.27166147 50.31957187 70 50 C70.33 50.66 70.66 51.32 71 52 C71.66 51.67 72.32 51.34 73 51 C72.30058404 54.14737182 71.23921302 57.02588876 70 60 C71.32 60 72.64 60 74 60 C74 60.99 74 61.98 74 63 C72.02 63 70.04 63 68 63 C67.505 64.98 67.505 64.98 67 67 C66.01 67 65.02 67 64 67 C64 65.68 64 64.36 64 63 C62.35 63 60.7 63 59 63 C59 64.65 59 66.3 59 68 C58.01 68 57.02 68 56 68 C56 66.02 56 64.04 56 62 C53.525 62.495 53.525 62.495 51 63 C51 63.66 51 64.32 51 65 C52.32 65.33 53.64 65.66 55 66 C53.625 67.5 53.625 67.5 52 69 C51.34 69 50.68 69 50 69 C50 71.97 50 74.94 50 78 C48.35 78 46.7 78 45 78 C44.73833038 78.58436829 44.47666077 79.16873657 44.20706177 79.77081299 C42.93003669 82.1292074 41.54916344 83.74303535 39.68701172 85.66699219 C39.012258 86.36741638 38.33750427 87.06784058 37.64230347 87.78948975 C36.9121402 88.53442688 36.18197693 89.27936401 35.4296875 90.046875 C34.67462921 90.81807678 33.91957092 91.58927856 33.14163208 92.3838501 C31.54244061 94.01067673 29.94013515 95.63444728 28.33496094 97.25537109 C25.88721081 99.73761711 23.46745054 102.2451934 21.046875 104.75390625 C19.48865005 106.33238037 17.92880599 107.90925811 16.3671875 109.484375 C15.29016068 110.61392609 15.29016068 110.61392609 14.19137573 111.76629639 C13.49770905 112.45411194 12.80404236 113.14192749 12.08935547 113.85058594 C11.49138153 114.46029236 10.89340759 115.06999878 10.27731323 115.69818115 C8 117 8 117 0 117 C0 78.39 0 39.78 0 0 Z " fill="#4594E0" transform="translate(0,0)"/>
<path d="M0 0 C5.94 0 11.88 0 18 0 C18 40.59 18 81.18 18 123 C-2 123 -2 123 -8.8125 116.5 C-10.48730469 114.36303711 -10.48730469 114.36303711 -11.609375 112.58984375 C-13.41278371 109.84885945 -15.29228591 107.4441031 -17.5625 105.0625 C-20.86802143 101.27063004 -23.95157615 97.31196683 -27 93.3125 C-27.5060376 92.66998291 -28.0120752 92.02746582 -28.53344727 91.36547852 C-32.02983477 86.69086132 -32.02983477 86.69086132 -31.875 83.10546875 C-31 81 -31 81 -30 80 C-28.52887696 79.74089809 -27.04698431 79.54126224 -25.5625 79.375 C-24.75941406 79.27960938 -23.95632812 79.18421875 -23.12890625 79.0859375 C-21 79 -21 79 -19 80 C-16.95944995 80.07065617 -14.91665743 80.08421976 -12.875 80.0625 C-11.77929688 80.05347656 -10.68359375 80.04445313 -9.5546875 80.03515625 C-8.71164063 80.02355469 -7.86859375 80.01195313 -7 80 C-7 79.34 -7 78.68 -7 78 C-9.64 77.34 -12.28 76.68 -15 76 C-15 75.34 -15 74.68 -15 74 C-15.99 74 -16.98 74 -18 74 C-18.33 73.01 -18.66 72.02 -19 71 C-19.97839844 70.83564453 -19.97839844 70.83564453 -20.9765625 70.66796875 C-26.1197623 69.73491038 -30.41899779 68.65215917 -35 66 C-35 62.04 -35 58.08 -35 54 C-33.35 54 -31.7 54 -30 54 C-29.773125 53.4225 -29.54625 52.845 -29.3125 52.25 C-27.66961977 49.4336339 -25.60466773 47.91922886 -23 46 C-24.87471188 45.83012319 -26.74978695 45.66425224 -28.625 45.5 C-30.19121094 45.36078125 -30.19121094 45.36078125 -31.7890625 45.21875 C-34.87146788 45.00875645 -37.91165229 44.96290273 -41 45 C-40.17099277 38.0916064 -38.14123388 32.15982368 -35.5 25.75 C-34.86578125 24.19539063 -34.86578125 24.19539063 -34.21875 22.609375 C-33 20 -33 20 -31 18 C-29.00977668 18.06075419 -27.0194691 18.12730162 -25.03100586 18.23071289 C-17.59686508 18.5109574 -17.59686508 18.5109574 -10.99462891 15.52148438 C-6.54914367 11.00081375 -2.8356134 5.6712268 0 0 Z " fill="#AE1530" transform="translate(110,0)"/>
<path d="M0 0 C14 0 14 0 17.23828125 2.640625 C18.33056641 4.37060547 18.33056641 4.37060547 19.3125 6.25 C20.09549166 7.52997249 20.880697 8.80859311 21.66796875 10.0859375 C22.04743652 10.7365918 22.4269043 11.38724609 22.81787109 12.05761719 C24.70576877 15.15966467 26.90876057 18.00305545 29.125 20.875 C29.87007812 21.86242187 30.61515625 22.84984375 31.3828125 23.8671875 C31.91648437 24.57101563 32.45015625 25.27484375 33 26 C33.33 22.04 33.66 18.08 34 14 C44.56 14 55.12 14 66 14 C66 24.23 66 34.46 66 45 C61.05 45 56.1 45 51 45 C51.99 46.65 52.98 48.3 54 50 C54.12375 50.721875 54.2475 51.44375 54.375 52.1875 C54.86771525 54.30913586 54.86771525 54.30913586 57.5625 55.25 C58.366875 55.4975 59.17125 55.745 60 56 C60.721875 55.195625 61.44375 54.39125 62.1875 53.5625 C65.02515689 50.97707928 66.27166147 50.31957187 70 50 C70.33 50.66 70.66 51.32 71 52 C71.66 51.67 72.32 51.34 73 51 C72.30058404 54.14737182 71.23921302 57.02588876 70 60 C71.32 60 72.64 60 74 60 C74 60.99 74 61.98 74 63 C72.02 63 70.04 63 68 63 C67.505 64.98 67.505 64.98 67 67 C66.01 67 65.02 67 64 67 C64 65.68 64 64.36 64 63 C62.35 63 60.7 63 59 63 C59 64.65 59 66.3 59 68 C58.01 68 57.02 68 56 68 C56 66.02 56 64.04 56 62 C53.525 62.495 53.525 62.495 51 63 C51.495 64.485 51.495 64.485 52 66 C50.68 65.67 49.36 65.34 48 65 C47.957279 63.33388095 47.95936168 61.66617115 48 60 C49 59 49 59 51.5625 58.9375 C52.366875 58.958125 53.17125 58.97875 54 59 C54 58.01 54 57.02 54 56 C51.36 56.33 48.72 56.66 46 57 C45.67 59.31 45.34 61.62 45 64 C44.01 63.67 43.02 63.34 42 63 C41.690625 62.175 41.38125 61.35 41.0625 60.5 C40.5365625 59.2625 40.5365625 59.2625 40 58 C37.97740247 57.30792478 37.97740247 57.30792478 36 57 C35.87882812 57.62648437 35.75765625 58.25296875 35.6328125 58.8984375 C35.38144531 60.12433594 35.38144531 60.12433594 35.125 61.375 C34.96257813 62.18710937 34.80015625 62.99921875 34.6328125 63.8359375 C34 66 34 66 32 68 C29.375 67.625 29.375 67.625 27 67 C27 66.34 27 65.68 27 65 C28.32 65 29.64 65 31 65 C31 64.01 31 63.02 31 62 C29.68 61.67 28.36 61.34 27 61 C29.475 60.505 29.475 60.505 32 60 C32 59.01 32 58.02 32 57 C30.68 57 29.36 57 28 57 C28.32552083 55.11197917 28.65104167 53.22395833 28.9765625 51.3359375 C29.00897797 48.105196 28.34890097 45.94060412 27 43 C24.48870711 40.75759493 24.48870711 40.75759493 21.5 38.9375 C16.93194788 35.9983191 16.13240073 35.33100183 14 30 C7.07 29.505 7.07 29.505 0 29 C0 19.43 0 9.86 0 0 Z " fill="#14527C" transform="translate(0,0)"/>
<path d="M0 0 C31.68 0 63.36 0 96 0 C94.36721766 3.26556469 92.86075721 5.62083644 90.625 8.4375 C90.03976563 9.17871094 89.45453125 9.91992188 88.8515625 10.68359375 C88.24054688 11.44800781 87.62953125 12.21242188 87 13 C86.49726562 13.91265625 85.99453125 14.8253125 85.4765625 15.765625 C81.43984262 19.40758679 76.97162267 18.5278588 71.75 18.3125 C70.71875 18.28994141 69.6875 18.26738281 68.625 18.24414062 C66.08185935 18.18527163 63.54166887 18.10310065 61 18 C60.8146167 18.56195068 60.6292334 19.12390137 60.43823242 19.70288086 C58.78922074 24.6791852 57.08480466 29.62878704 55.3125 34.5625 C54.87550781 35.78066406 54.43851563 36.99882813 53.98828125 38.25390625 C53.66214844 39.16011719 53.33601563 40.06632812 53 41 C52.67 41 52.34 41 52 41 C52 32.09 52 23.18 52 14 C41.44 14 30.88 14 20 14 C20 18.29 20 22.58 20 27 C15.75454609 22.99736725 12.32632372 18.63250521 8.875 13.9375 C8.35035156 13.23044922 7.82570313 12.52339844 7.28515625 11.79492188 C6.28454019 10.4459901 5.28664701 9.0950326 4.29199219 7.74169922 C3.26207598 6.35329743 2.20231922 4.98704553 1.1328125 3.62890625 C0 2 0 2 0 0 Z " fill="#020203" transform="translate(14,0)"/>
<path d="M0 0 C5.94 0 11.88 0 18 0 C18.80357143 17.27678571 18.80357143 17.27678571 15.375 21.3125 C13.69140625 22.8046875 13.69140625 22.8046875 12 24 C10.6696875 24.9590625 10.6696875 24.9590625 9.3125 25.9375 C7.6728125 26.9584375 7.6728125 26.9584375 6 28 C4.11701039 29.3430348 2.24271309 30.69830053 0.375 32.0625 C-0.54539063 32.73410156 -1.46578125 33.40570313 -2.4140625 34.09765625 C-3.26742187 34.72542969 -4.12078125 35.35320313 -5 36 C-5.75023437 36.52207031 -6.50046875 37.04414062 -7.2734375 37.58203125 C-9.22923581 38.94915942 -9.22923581 38.94915942 -10 41.625 C-10.33 42.40875 -10.66 43.1925 -11 44 C-13.125 44.8125 -13.125 44.8125 -15 45 C-15 45.66 -15 46.32 -15 47 C-13.515 46.505 -13.515 46.505 -12 46 C-9.66700175 45.96045766 -7.33291811 45.95598268 -5 46 C-10.10668601 51.10668601 -20.08559626 51.66172831 -27 53 C-24.31158141 50.74754119 -22.35358125 49.11786042 -19 48 C-19 46.68 -19 45.36 -19 44 C-17.02 43.505 -17.02 43.505 -15 43 C-14.67 35.08 -14.34 27.16 -14 19 C-17.52401269 22.52401269 -20.75387306 25.94775361 -23.9375 29.75 C-24.37352539 30.26788086 -24.80955078 30.78576172 -25.25878906 31.31933594 C-27.88674524 34.48966169 -30.13466751 37.7225854 -32.25 41.25 C-33.6171875 43.41796875 -33.6171875 43.41796875 -35 45 C-38.375 45.5625 -38.375 45.5625 -41 45 C-40.17099277 38.0916064 -38.14123388 32.15982368 -35.5 25.75 C-34.86578125 24.19539063 -34.86578125 24.19539063 -34.21875 22.609375 C-33 20 -33 20 -31 18 C-29.00977668 18.06075419 -27.0194691 18.12730162 -25.03100586 18.23071289 C-17.59686508 18.5109574 -17.59686508 18.5109574 -10.99462891 15.52148438 C-6.54914367 11.00081375 -2.8356134 5.6712268 0 0 Z " fill="#6C1124" transform="translate(110,0)"/>
<path d="M0 0 C0.66 0 1.32 0 2 0 C2 7.92 2 15.84 2 24 C0.35 24.33 -1.3 24.66 -3 25 C-3 26.32 -3 27.64 -3 29 C-5.5 31.25 -5.5 31.25 -8 33 C-7.43796875 32.68804687 -6.8759375 32.37609375 -6.296875 32.0546875 C-3.89364274 30.95116248 -1.85527629 30.53155585 0.75 30.125 C4.14226918 29.50464308 6.72440147 28.75062714 9.6875 27 C15.49455474 23.77786611 22.49656382 23.6435692 29 23 C29 26.3 29 29.6 29 33 C25 34 25 34 23 34 C21.36323743 35.9600281 21.36323743 35.9600281 20 38 C20.309375 38.598125 20.61875 39.19625 20.9375 39.8125 C22 42 22 42 23 45 C21.125 44.6875 21.125 44.6875 19 44 C18.34 43.01 17.68 42.02 17 41 C16.67 42.32 16.34 43.64 16 45 C15.38125 44.79375 14.7625 44.5875 14.125 44.375 C13.073125 44.189375 13.073125 44.189375 12 44 C11.34 44.66 10.68 45.32 10 46 C6.875 46.125 6.875 46.125 4 46 C3.67 45.01 3.34 44.02 3 43 C4.65 43 6.3 43 8 43 C8 42.34 8 41.68 8 41 C4.07561214 39.33510818 0.10899581 38.12795963 -4 37 C-4 37.66 -4 38.32 -4 39 C-2.35 39 -0.7 39 1 39 C1 39.66 1 40.32 1 41 C0.0409375 41.185625 0.0409375 41.185625 -0.9375 41.375 C-1.618125 41.58125 -2.29875 41.7875 -3 42 C-3.33 42.66 -3.66 43.32 -4 44 C-2.02 44 -0.04 44 2 44 C2.33 44.99 2.66 45.98 3 47 C3.66 47.33 4.32 47.66 5 48 C4.67 48.99 4.34 49.98 4 51 C-4.21915869 52.78677363 -11.71349436 51.21850327 -19 47 C-19 43.04 -19 39.08 -19 35 C-17.35 35 -15.7 35 -14 35 C-13.773125 34.4225 -13.54625 33.845 -13.3125 33.25 C-11.66961977 30.4336339 -9.60466773 28.91922886 -7 27 C-7.93972656 26.90912109 -7.93972656 26.90912109 -8.8984375 26.81640625 C-9.71570313 26.73261719 -10.53296875 26.64882813 -11.375 26.5625 C-12.59316406 26.44068359 -12.59316406 26.44068359 -13.8359375 26.31640625 C-16 26 -16 26 -18 25 C-16.46190803 20.24180904 -13.78789533 16.88755613 -10.6875 13.0625 C-10.21376953 12.46759766 -9.74003906 11.87269531 -9.25195312 11.25976562 C-8.3078186 10.07798301 -7.35850389 8.90031846 -6.40380859 7.72705078 C-5.46014042 6.56609275 -4.52566409 5.39760829 -3.60009766 4.22216797 C-2.44485013 2.7777906 -1.22732896 1.38364969 0 0 Z " fill="#962044" transform="translate(94,19)"/>
<path d="M0 0 C1.32 0.33 2.64 0.66 4 1 C0.4566443 9.25583893 0.4566443 9.25583893 -1.6875 12.75 C-3.13988043 15.23979502 -3.52799906 17.16799438 -4 20 C-4.65146849 22.33762223 -5.31526605 24.67190457 -6 27 C-4.72125 26.814375 -3.4425 26.62875 -2.125 26.4375 C3.02751066 25.84770546 7.87985373 26.30519936 13 27 C12.236875 27.7425 11.47375 28.485 10.6875 29.25 C8.02766114 31.79090024 8.02766114 31.79090024 6.5 34.3125 C6.005 34.869375 5.51 35.42625 5 36 C3.35 36 1.7 36 0 36 C0.33 39.96 0.66 43.92 1 48 C2.52625 48.45375 4.0525 48.9075 5.625 49.375 C9.44037676 50.51852911 13.23088252 51.71056507 17 53 C17 53.99 17 54.98 17 56 C17.99 56 18.98 56 20 56 C20 56.66 20 57.32 20 58 C20.763125 57.95875 21.52625 57.9175 22.3125 57.875 C25 58 25 58 28 60 C28 60.66 28 61.32 28 62 C23.4051909 63.11389311 18.61453093 63.73533682 14 62.4375 C10.90615639 61.76072171 8.08555121 62.46596229 5 63 C4.20046862 66.28696233 3.90341064 67.71023192 5 71 C-0.92379507 72.15900338 -6.00715946 71.73884335 -12 71 C-12.33 66.38 -12.66 61.76 -13 57 C-10.50907189 55.75453595 -9.58919267 56.2232422 -7 57 C-8.32 54.69 -9.64 52.38 -11 50 C-9.515 49.505 -9.515 49.505 -8 49 C-8 47.35 -8 45.7 -8 44 C-4.535 44.495 -4.535 44.495 -1 45 C-1 44.01 -1 43.02 -1 42 C-2.32 42 -3.64 42 -5 42 C-4.7525 40.824375 -4.7525 40.824375 -4.5 39.625 C-3.87584139 36.3481673 -3.92593 35.22221 -5 32 C-9.26672384 32.47408043 -11.2455048 34.88307122 -14 38 C-15.29519995 40.16620544 -15.29519995 40.16620544 -16 42 C-16.12375 41.071875 -16.12375 41.071875 -16.25 40.125 C-16.4975 39.42375 -16.745 38.7225 -17 38 C-17.639375 37.7215625 -18.27875 37.443125 -18.9375 37.15625 C-22.6849828 35.05538843 -22.87191272 30.94830549 -24 27 C-19.05 27 -14.1 27 -9 27 C-8.67 25.02 -8.34 23.04 -8 21 C-7.59335843 19.59974679 -7.14937128 18.20952225 -6.66015625 16.8359375 C-6.2724707 15.74152344 -6.2724707 15.74152344 -5.87695312 14.625 C-5.60818359 13.8825 -5.33941406 13.14 -5.0625 12.375 C-4.79759766 11.62476563 -4.53269531 10.87453125 -4.25976562 10.1015625 C-3.01824404 6.62653434 -1.7774046 3.24569535 0 0 Z " fill="#1F0B17" transform="translate(75,18)"/>
<path d="M0 0 C1.32 0 2.64 0 4 0 C5.76083043 2.05582274 7.21020988 4.0034217 8.6875 6.25 C9.56239741 7.52960738 10.43873018 8.80823439 11.31640625 10.0859375 C11.75871582 10.7365918 12.20102539 11.38724609 12.65673828 12.05761719 C14.7317913 15.05818458 16.92165569 17.9679884 19.125 20.875 C19.87007812 21.86242187 20.61515625 22.84984375 21.3828125 23.8671875 C21.91648437 24.57101563 22.45015625 25.27484375 23 26 C23.33 22.04 23.66 18.08 24 14 C34.56 14 45.12 14 56 14 C56 24.23 56 34.46 56 45 C50.72 45 45.44 45 40 45 C40 40.38 40 35.76 40 31 C35.38 31 30.76 31 26 31 C26 30.34 26 29.68 26 29 C25.34 29 24.68 29 24 29 C23.67 29.99 23.34 30.98 23 32 C22.319375 30.7934375 22.319375 30.7934375 21.625 29.5625 C20.25274335 26.91143428 20.25274335 26.91143428 18 26 C17.03782116 24.32192671 16.07925945 22.64159075 15.14599609 20.94726562 C13.31215904 17.8312272 11.06944886 15.06704336 8.8125 12.25 C4.1329722 6.3989166 4.1329722 6.3989166 3 3 C2.34 3 1.68 3 1 3 C0.67 2.01 0.34 1.02 0 0 Z " fill="#193D65" transform="translate(10,0)"/>
<path d="M0 0 C0 16.5 0 33 0 50 C-1.32 50 -2.64 50 -4 50 C-4.33 48.68 -4.66 47.36 -5 46 C-7.97 46.495 -7.97 46.495 -11 47 C-12.32 45.35 -13.64 43.7 -15 42 C-13.79618552 39.50638429 -12.54571278 37.31856917 -11 35 C-9.35 35 -7.7 35 -6 35 C-5.67 31.7 -5.34 28.4 -5 25 C-5.96421875 25.29648437 -6.9284375 25.59296875 -7.921875 25.8984375 C-12.31193536 27.1517931 -16.74699061 27.9015657 -21.25 28.625 C-22.05179688 28.7590625 -22.85359375 28.893125 -23.6796875 29.03125 C-26.84628065 29.55019001 -29.78294995 30 -33 30 C-33 29.34 -33 28.68 -33 28 C-32.38125 27.773125 -31.7625 27.54625 -31.125 27.3125 C-28.78605507 26.17656231 -28.78605507 26.17656231 -28.1875 23.6640625 C-26.67773957 20.27703417 -24.9222173 19.13783323 -21.875 17.0625 C-20.89402344 16.38316406 -19.91304687 15.70382813 -18.90234375 15.00390625 C-17.94457031 14.34261719 -16.98679687 13.68132813 -16 13 C-13.83968042 11.35982157 -11.69552569 9.70169991 -9.55859375 8.03125 C-8 7 -8 7 -6 7 C-5.731875 6.401875 -5.46375 5.80375 -5.1875 5.1875 C-2.37142857 0 -2.37142857 0 0 0 Z " fill="#B1162E" transform="translate(128,17)"/>
<path d="M0 0 C5.26371362 -0.50130606 7.9090934 0.68831371 12 4 C12 4.66 12 5.32 12 6 C10.35 6 8.7 6 7 6 C7.33 6.66 7.66 7.32 8 8 C10.87413125 8.33397787 10.87413125 8.33397787 14 8 C15.91256712 6.11922127 15.91256712 6.11922127 17 4 C17 5.32 17 6.64 17 8 C17.99 8 18.98 8 20 8 C20 6.35 20 4.7 20 3 C20.474375 3.680625 20.94875 4.36125 21.4375 5.0625 C24.44687638 7.33788214 25.14283302 7.17604334 28.75 6.75 C30.17020201 6.52093516 31.58845901 6.27748242 33 6 C33.495 8.475 33.495 8.475 34 11 C35.32 11 36.64 11 38 11 C38 15.29 38 19.58 38 24 C27.35632234 26.12873553 16.80509358 26.12201486 6 26 C8 24 8 24 10.625 23.875 C11.40875 23.91625 12.1925 23.9575 13 24 C13 23.34 13 22.68 13 22 C10.36 21.34 7.72 20.68 5 20 C5 19.34 5 18.68 5 18 C4.01 18 3.02 18 2 18 C2 17.01 2 16.02 2 15 C3.4540625 14.566875 3.4540625 14.566875 4.9375 14.125 C8.10664203 13.35785318 8.10664203 13.35785318 9 11 C5.37 10.67 1.74 10.34 -2 10 C-2 9.67 -2 9.34 -2 9 C0.64 9 3.28 9 6 9 C6 8.34 6 7.68 6 7 C4.02 7 2.04 7 0 7 C0.33 6.01 0.66 5.02 1 4 C2.32 4 3.64 4 5 4 C5 3.34 5 2.68 5 2 C3.35 2 1.7 2 0 2 C0 1.34 0 0.68 0 0 Z " fill="#781124" transform="translate(90,56)"/>
<path d="M0 0 C4.62 0 9.24 0 14 0 C9.19190414 5.82628086 3.98195045 11.17223502 -1.36987305 16.50024414 C-2.83046259 17.95539571 -4.28553203 19.41591857 -5.74023438 20.87695312 C-6.65740234 21.79283203 -7.57457031 22.70871094 -8.51953125 23.65234375 C-9.35589111 24.48757568 -10.19225098 25.32280762 -11.05395508 26.18334961 C-13 28 -13 28 -14 28 C-14 25.03 -14 22.06 -14 19 C-17.5179666 22.4364451 -20.77630975 25.97455004 -23.9375 29.75 C-24.37352539 30.26788086 -24.80955078 30.78576172 -25.25878906 31.31933594 C-27.88674524 34.48966169 -30.13466751 37.7225854 -32.25 41.25 C-33.6171875 43.41796875 -33.6171875 43.41796875 -35 45 C-38.375 45.5625 -38.375 45.5625 -41 45 C-40.17099277 38.0916064 -38.14123388 32.15982368 -35.5 25.75 C-34.86578125 24.19539063 -34.86578125 24.19539063 -34.21875 22.609375 C-33 20 -33 20 -31 18 C-29.00977668 18.06075419 -27.0194691 18.12730162 -25.03100586 18.23071289 C-17.59686508 18.5109574 -17.59686508 18.5109574 -10.99462891 15.52148438 C-6.54914367 11.00081375 -2.8356134 5.6712268 0 0 Z " fill="#531935" transform="translate(110,0)"/>
<path d="M0 0 C4.62 0 9.24 0 14 0 C16 2 16 2 16.22705078 4.70556641 C16.21657715 5.82624512 16.20610352 6.94692383 16.1953125 8.1015625 C16.18886719 9.31328125 16.18242187 10.525 16.17578125 11.7734375 C16.15902344 13.04445313 16.14226563 14.31546875 16.125 15.625 C16.11597656 16.90375 16.10695313 18.1825 16.09765625 19.5 C16.07402303 22.66685167 16.04107629 25.83333424 16 29 C16.9590625 29.2165625 16.9590625 29.2165625 17.9375 29.4375 C20 30 20 30 21 31 C21 33.33333333 21 35.66666667 21 38 C21.33 38.99 21.66 39.98 22 41 C21.01 41 20.02 41 19 41 C18.34 40.01 17.68 39.02 17 38 C16.67 39.32 16.34 40.64 16 42 C15.01 42 14.02 42 13 42 C12.67 38.37 12.34 34.74 12 31 C8.04 30.01 4.08 29.02 0 28 C0 18.76 0 9.52 0 0 Z " fill="#7AB3EB" transform="translate(0,29)"/>
<path d="M0 0 C24.77626887 -0.41277905 24.77626887 -0.41277905 36 2 C37.19287411 5.87684087 38 8.91621923 38 13 C42.29 13 46.58 13 51 13 C51 13.33 51 13.66 51 14 C40.77 14 30.54 14 20 14 C20 18.29 20 22.58 20 27 C15.75454609 22.99736725 12.32632372 18.63250521 8.875 13.9375 C8.35035156 13.23044922 7.82570313 12.52339844 7.28515625 11.79492188 C6.28454019 10.4459901 5.28664701 9.0950326 4.29199219 7.74169922 C3.26207598 6.35329743 2.20231922 4.98704553 1.1328125 3.62890625 C0 2 0 2 0 0 Z " fill="#03080E" transform="translate(14,0)"/>
<path d="M0 0 C0 3.3 0 6.6 0 10 C-4 11 -4 11 -6 11 C-7.63676257 12.9600281 -7.63676257 12.9600281 -9 15 C-8.5359375 15.8971875 -8.5359375 15.8971875 -8.0625 16.8125 C-7 19 -7 19 -6 22 C-7.875 21.6875 -7.875 21.6875 -10 21 C-10.66 20.01 -11.32 19.02 -12 18 C-12.33 19.32 -12.66 20.64 -13 22 C-13.61875 21.79375 -14.2375 21.5875 -14.875 21.375 C-15.57625 21.25125 -16.2775 21.1275 -17 21 C-17.66 21.66 -18.32 22.32 -19 23 C-22.125 23.125 -22.125 23.125 -25 23 C-25.33 22.01 -25.66 21.02 -26 20 C-24.35 20 -22.7 20 -21 20 C-21 19.34 -21 18.68 -21 18 C-24.92438786 16.33510818 -28.89100419 15.12795963 -33 14 C-33 14.66 -33 15.32 -33 16 C-31.35 16 -29.7 16 -28 16 C-28 16.66 -28 17.32 -28 18 C-28.639375 18.12375 -29.27875 18.2475 -29.9375 18.375 C-30.618125 18.58125 -31.29875 18.7875 -32 19 C-32.33 19.66 -32.66 20.32 -33 21 C-31.02 21 -29.04 21 -27 21 C-27 21.66 -27 22.32 -27 23 C-29.97 23 -32.94 23 -36 23 C-36 19.04 -36 15.08 -36 11 C-34.35 11 -32.7 11 -31 11 C-31 10.34 -31 9.68 -31 9 C-30.09636719 8.66226563 -29.19273438 8.32453125 -28.26171875 7.9765625 C-27.08222656 7.53054687 -25.90273437 7.08453125 -24.6875 6.625 C-22.92986328 5.96371094 -22.92986328 5.96371094 -21.13671875 5.2890625 C-17.91446407 4.08510352 -17.91446407 4.08510352 -15 2 C-13.01477798 1.55332504 -11.01101944 1.18552506 -9 0.875 C-7.4221875 0.62363281 -7.4221875 0.62363281 -5.8125 0.3671875 C-3 0 -3 0 0 0 Z " fill="#7B182B" transform="translate(123,42)"/>
<path d="M0 0 C1.93559313 -0.13504138 3.873872 -0.23201129 5.8125 -0.3125 C6.89144531 -0.37050781 7.97039063 -0.42851563 9.08203125 -0.48828125 C12 0 12 0 13.86328125 2.3828125 C15 5 15 5 15.375 7.1875 C15.86771525 9.30913586 15.86771525 9.30913586 18.5625 10.25 C19.366875 10.4975 20.17125 10.745 21 11 C21.721875 10.195625 22.44375 9.39125 23.1875 8.5625 C26.02515689 5.97707928 27.27166147 5.31957187 31 5 C31.495 5.99 31.495 5.99 32 7 C32.66 6.67 33.32 6.34 34 6 C33.30058404 9.14737182 32.23921302 12.02588876 31 15 C32.32 15 33.64 15 35 15 C35 15.99 35 16.98 35 18 C33.02 18 31.04 18 29 18 C28.67 19.32 28.34 20.64 28 22 C27.01 22 26.02 22 25 22 C25 20.68 25 19.36 25 18 C23.35 18 21.7 18 20 18 C20 19.65 20 21.3 20 23 C19.01 23 18.02 23 17 23 C17 21.02 17 19.04 17 17 C15.35 17.33 13.7 17.66 12 18 C12.33 18.99 12.66 19.98 13 21 C11.68 20.67 10.36 20.34 9 20 C8.957279 18.33388095 8.95936168 16.66617115 9 15 C10 14 10 14 12.5625 13.9375 C13.366875 13.958125 14.17125 13.97875 15 14 C15 13.01 15 12.02 15 11 C12.36 11.33 9.72 11.66 7 12 C6.67 14.31 6.34 16.62 6 19 C5.01 18.67 4.02 18.34 3 18 C2.690625 17.175 2.38125 16.35 2.0625 15.5 C1.711875 14.675 1.36125 13.85 1 13 C-1.02259753 12.30792478 -1.02259753 12.30792478 -3 12 C-3.12117188 12.62648438 -3.24234375 13.25296875 -3.3671875 13.8984375 C-3.53476562 14.71570312 -3.70234375 15.53296875 -3.875 16.375 C-4.03742187 17.18710937 -4.19984375 17.99921875 -4.3671875 18.8359375 C-5 21 -5 21 -7 23 C-9.625 22.625 -9.625 22.625 -12 22 C-12 21.34 -12 20.68 -12 20 C-10.68 20 -9.36 20 -8 20 C-8 19.01 -8 18.02 -8 17 C-9.32 16.67 -10.64 16.34 -12 16 C-10.35 15.67 -8.7 15.34 -7 15 C-7 14.01 -7 13.02 -7 12 C-8.32 12 -9.64 12 -11 12 C-10.74438677 9.6568787 -10.40729228 7.32156597 -10 5 C-9.34 4.67 -8.68 4.34 -8 4 C-5.6995093 5.15250516 -3.56985017 6.51080643 -1.38671875 7.87109375 C1.28570624 9.13513765 3.080234 9.21187682 6 9 C6 8.34 6 7.68 6 7 C7.65 7 9.3 7 11 7 C11 6.34 11 5.68 11 5 C8.69 4.67 6.38 4.34 4 4 C3.67 3.01 3.34 2.02 3 1 C2.01 0.67 1.02 0.34 0 0 Z " fill="#112E49" transform="translate(39,45)"/>
<path d="M0 0 C1.32 0 2.64 0 4 0 C4 2.64 4 5.28 4 8 C8.29 8 12.58 8 17 8 C15.31803426 11.36393149 14.20210799 13.06841947 11.68701172 15.66699219 C11.012258 16.36741638 10.33750427 17.06784058 9.64230347 17.78948975 C8.9121402 18.53442688 8.18197693 19.27936401 7.4296875 20.046875 C6.29710007 21.20367767 6.29710007 21.20367767 5.14163208 22.3838501 C3.54244061 24.01067673 1.94013515 25.63444728 0.33496094 27.25537109 C-2.11278919 29.73761711 -4.53254946 32.2451934 -6.953125 34.75390625 C-8.51134995 36.33238037 -10.07119401 37.90925811 -11.6328125 39.484375 C-12.35083038 40.23740906 -13.06884827 40.99044312 -13.80862427 41.76629639 C-19.54098559 47.45030477 -19.54098559 47.45030477 -24.52294922 47.46972656 C-25.67037598 47.3147168 -26.81780273 47.15970703 -28 47 C-27.75 44.625 -27.75 44.625 -27 42 C-24.43689172 40.2058242 -23.16880694 40 -20 40 C-18.54965396 38.69543498 -18.54965396 38.69543498 -17.3125 37 C-16.549375 36.01 -15.78625 35.02 -15 34 C-16.98 34.495 -16.98 34.495 -19 35 C-15.0580583 30.11950075 -10.88049925 25.9419417 -6 22 C-6.66 21.67 -7.32 21.34 -8 21 C-8 20.34 -8 19.68 -8 19 C-5.36 19 -2.72 19 0 19 C0 12.73 0 6.46 0 0 Z " fill="#19436E" transform="translate(28,70)"/>
<path d="M0 0 C3.97859678 -0.17602413 7.95617806 -0.28142668 11.9375 -0.375 C13.05447266 -0.42527344 14.17144531 -0.47554688 15.32226562 -0.52734375 C22.18290031 -0.64805873 26.89990727 0.04105618 32.41577148 4.30712891 C34 6 34 6 34.87890625 8.9921875 C34.77449219 9.94351563 34.67007813 10.89484375 34.5625 11.875 C34.48128906 12.84179688 34.40007812 13.80859375 34.31640625 14.8046875 C34.21199219 15.52914062 34.10757813 16.25359375 34 17 C17.28527419 19.08108246 17.28527419 19.08108246 11.90722656 15.67431641 C7.87841942 11.97642405 4.90515243 7.6042914 2 3 C1.34 2.01 0.68 1.02 0 0 Z " fill="#631022" transform="translate(94,106)"/>
<path d="M0 0 C0 0.99 0 1.98 0 3 C-1.65 3.33 -3.3 3.66 -5 4 C-5 5.65 -5 7.3 -5 9 C-3.35 9 -1.7 9 0 9 C0 9.99 0 10.98 0 12 C-1.32 12.33 -2.64 12.66 -4 13 C-4 15.97 -4 18.94 -4 22 C-9.94 22 -15.88 22 -22 22 C-22 19.36 -22 16.72 -22 14 C-24.64 14 -27.28 14 -30 14 C-30.33 10.04 -30.66 6.08 -31 2 C-28.36 2 -25.72 2 -23 2 C-23 2.66 -23 3.32 -23 4 C-23.99 4.33 -24.98 4.66 -26 5 C-25.01 5.33 -24.02 5.66 -23 6 C-23 6.99 -23 7.98 -23 9 C-24.32 9 -25.64 9 -27 9 C-27 9.66 -27 10.32 -27 11 C-25.35 11 -23.7 11 -22 11 C-20.68 7.7 -19.36 4.4 -18 1 C-16.35 1.33 -14.7 1.66 -13 2 C-11.8125 4.5 -11.8125 4.5 -11 7 C-10.34 7.33 -9.68 7.66 -9 8 C-8.87625 6.865625 -8.7525 5.73125 -8.625 4.5625 C-8.315625 2.7990625 -8.315625 2.7990625 -8 1 C-5.29120665 -0.35439668 -2.99066732 -0.06501451 0 0 Z " fill="#427BD4" transform="translate(54,56)"/>
<path d="M0 0 C1.32 0.33 2.64 0.66 4 1 C0.4566443 9.25583893 0.4566443 9.25583893 -1.6875 12.75 C-3.13988043 15.23979502 -3.52799906 17.16799438 -4 20 C-4.65146849 22.33762223 -5.31526605 24.67190457 -6 27 C-4.72125 26.814375 -3.4425 26.62875 -2.125 26.4375 C3.02751066 25.84770546 7.87985373 26.30519936 13 27 C12.236875 27.7425 11.47375 28.485 10.6875 29.25 C8.02766114 31.79090024 8.02766114 31.79090024 6.5 34.3125 C5 36 5 36 2.3125 36.25 C1.549375 36.1675 0.78625 36.085 0 36 C-0.33 37.65 -0.66 39.3 -1 41 C-2.98 41.495 -2.98 41.495 -5 42 C-4.7525 40.824375 -4.7525 40.824375 -4.5 39.625 C-3.87584139 36.3481673 -3.92593 35.22221 -5 32 C-9.26672384 32.47408043 -11.2455048 34.88307122 -14 38 C-15.29519995 40.16620544 -15.29519995 40.16620544 -16 42 C-16.12375 41.071875 -16.12375 41.071875 -16.25 40.125 C-16.4975 39.42375 -16.745 38.7225 -17 38 C-17.639375 37.7215625 -18.27875 37.443125 -18.9375 37.15625 C-22.6849828 35.05538843 -22.87191272 30.94830549 -24 27 C-19.05 27 -14.1 27 -9 27 C-8.67 25.02 -8.34 23.04 -8 21 C-7.59335843 19.59974679 -7.14937128 18.20952225 -6.66015625 16.8359375 C-6.2724707 15.74152344 -6.2724707 15.74152344 -5.87695312 14.625 C-5.60818359 13.8825 -5.33941406 13.14 -5.0625 12.375 C-4.79759766 11.62476563 -4.53269531 10.87453125 -4.25976562 10.1015625 C-3.01824404 6.62653434 -1.7774046 3.24569535 0 0 Z " fill="#331125" transform="translate(75,18)"/>
<path d="M0 0 C9.24 0 18.48 0 28 0 C28 0.33 28 0.66 28 1 C25.36 1 22.72 1 20 1 C20 1.66 20 2.32 20 3 C20.99 3.33 21.98 3.66 23 4 C16.565 9.94 16.565 9.94 10 16 C10.99 15.67 11.98 15.34 13 15 C13 18 13 18 11.46875 19.60546875 C10.8190625 20.12753906 10.169375 20.64960937 9.5 21.1875 C8.8503125 21.71730469 8.200625 22.24710938 7.53125 22.79296875 C7.0259375 23.19128906 6.520625 23.58960937 6 24 C5.67 23.34 5.34 22.68 5 22 C3.35 22.99 1.7 23.98 0 25 C0 16.75 0 8.5 0 0 Z " fill="#205D9E" transform="translate(0,88)"/>
<path d="M0 0 C11.34050179 6.48028674 11.34050179 6.48028674 13.4375 11.3125 C14.10745761 15.70444435 13.51054153 17.88797028 12 22 C13.32 22 14.64 22 16 22 C15.67 22.99 15.34 23.98 15 25 C15 24.34 15 23.68 15 23 C12.36 23 9.72 23 7 23 C7.33 23.99 7.66 24.98 8 26 C8.06740865 27.56118428 8.08514456 29.1250252 8.0625 30.6875 C8.05347656 31.49574219 8.04445313 32.30398437 8.03515625 33.13671875 C8.02355469 33.75160156 8.01195312 34.36648437 8 35 C9.32 35 10.64 35 12 35 C12 36.98 12 38.96 12 41 C7.05 41.495 7.05 41.495 2 42 C1.505 40.515 1.505 40.515 1 39 C1.66 38.34 2.32 37.68 3 37 C2.01 36.34 1.02 35.68 0 35 C0.33 33.68 0.66 32.36 1 31 C1.66 32.32 2.32 33.64 3 35 C3.99 35 4.98 35 6 35 C5.67 34.278125 5.34 33.55625 5 32.8125 C3.99396471 29.98302573 3.83022598 27.97104534 4 25 C2.68 24.34 1.36 23.68 0 23 C0 15.41 0 7.82 0 0 Z " fill="#3A7DD8" transform="translate(16,35)"/>
<path d="M0 0 C0 6.93 0 13.86 0 21 C-4.55897116 19.17641154 -5.86406072 18.3450019 -9 15 C-11.75335832 13.16442779 -13.75180677 12.53345551 -16.8828125 11.70703125 C-21.12866126 10.28913711 -25.04873112 8.08296267 -29 6 C-29 5.34 -29 4.68 -29 4 C-29.99 3.67 -30.98 3.34 -32 3 C-32 2.67 -32 2.34 -32 2 C-30.35451172 1.90912109 -30.35451172 1.90912109 -28.67578125 1.81640625 C-27.22134346 1.73195502 -25.76691695 1.64730934 -24.3125 1.5625 C-23.59126953 1.52318359 -22.87003906 1.48386719 -22.12695312 1.44335938 C-19.13790865 1.26592751 -16.28410487 1.05682097 -13.34375 0.46875 C-8.94755819 -0.41048836 -4.4661041 -0.05380848 0 0 Z " fill="#97142B" transform="translate(128,80)"/>
<path d="M0 0 C0.91434946 3.60269316 1.0081518 6.40425858 0 10 C-3.83459654 14.33034656 -8.32363163 17.62812614 -13 21 C-14.03511719 21.76957031 -15.07023437 22.53914063 -16.13671875 23.33203125 C-17.93334405 24.65315136 -19.74052593 25.96015778 -21.5625 27.24609375 C-24.08336592 29.01141056 -24.08336592 29.01141056 -26.625 31.22265625 C-29 33 -29 33 -32 33 C-32.46364794 30.41331662 -32.46229399 28.66929826 -30.94055176 26.46615601 C-29.35453709 24.70842451 -27.70835055 23.04203498 -26.015625 21.38671875 C-25.40362244 20.77230423 -24.79161987 20.15788971 -24.16107178 19.52485657 C-22.86570265 18.230466 -21.56411464 16.94227342 -20.25683594 15.65991211 C-18.25546451 13.69287078 -16.27920934 11.70293661 -14.3046875 9.70898438 C-13.04309593 8.45429041 -11.78012023 7.20098632 -10.515625 5.94921875 C-9.62789398 5.05404793 -9.62789398 5.05404793 -8.722229 4.14079285 C-4.46099191 0 -4.46099191 0 0 0 Z " fill="#94152C" transform="translate(128,0)"/>
<path d="M0 0 C3 4 3 4 3 6 C3.99 6.33 4.98 6.66 6 7 C7.578125 8.56640625 7.578125 8.56640625 9.25 10.5625 C9.86488281 11.28566406 10.47976563 12.00882813 11.11328125 12.75390625 C11.73589844 13.49511719 12.35851563 14.23632812 13 15 C14.14135786 16.33716643 15.28710712 17.67059862 16.4375 19 C17.00339844 19.65484375 17.56929687 20.3096875 18.15234375 20.984375 C20.80299914 23.87599906 23.68338391 26.51260786 26.59375 29.140625 C28 31 28 31 27.71875 33.234375 C27.4815625 33.81703125 27.244375 34.3996875 27 35 C26.39671875 34.43410156 25.7934375 33.86820313 25.171875 33.28515625 C24.37265625 32.55167969 23.5734375 31.81820312 22.75 31.0625 C21.96109375 30.33160156 21.1721875 29.60070312 20.359375 28.84765625 C16.15177073 25.5526284 11.99601767 25.77751966 6.75 25.4375 C4.5225 25.293125 2.295 25.14875 0 25 C0 16.75 0 8.5 0 0 Z " fill="#1865A0" transform="translate(0,4)"/>
<path d="M0 0 C1.98 0 3.96 0 6 0 C6 1.32 6 2.64 6 4 C3.5 6.25 3.5 6.25 1 8 C1.556875 7.67 2.11375 7.34 2.6875 7 C5.30284522 5.8690399 7.1806646 5.84337026 10 6 C9.01 6.33 8.02 6.66 7 7 C7 7.66 7 8.32 7 9 C5.35 9 3.7 9 2 9 C2.33 12.96 2.66 16.92 3 21 C5.27864583 21.22786458 7.55729167 21.45572917 9.8359375 21.68359375 C12 22 12 22 14 23 C13.67 23.99 13.34 24.98 13 26 C4.78084131 27.78677363 -2.71349436 26.21850327 -10 22 C-10 18.04 -10 14.08 -10 10 C-8.35 10 -6.7 10 -5 10 C-4.773125 9.4225 -4.54625 8.845 -4.3125 8.25 C-2.66961977 5.4336339 -0.60466773 3.91922886 2 2 C1.34 1.34 0.68 0.68 0 0 Z " fill="#3D1020" transform="translate(85,44)"/>
<path d="M0 0 C11.11607143 1.875 11.11607143 1.875 16 4 C16 6.97 16 9.94 16 13 C17.32 13.33 18.64 13.66 20 14 C21.90324784 15.90324784 21 19.45022931 21 22 C21.33 22.99 21.66 23.98 22 25 C21.01 25 20.02 25 19 25 C18.34 24.01 17.68 23.02 17 22 C16.67 23.32 16.34 24.64 16 26 C15.01 26 14.02 26 13 26 C12.67 22.37 12.34 18.74 12 15 C6.06 13.515 6.06 13.515 0 12 C0 8.04 0 4.08 0 0 Z " fill="#67ABE8" transform="translate(0,45)"/>
<path d="M0 0 C2.93879484 1.35236577 5.29232911 2.89942659 7.75 5 C8.67039062 5.7734375 8.67039062 5.7734375 9.609375 6.5625 C11 8 11 8 11 10 C11.66 10 12.32 10 13 10 C13 8.02 13 6.04 13 4 C17.6875 7.515625 17.6875 7.515625 19 9 C19 10.32 19 11.64 19 13 C21.33214148 14.20628008 23.49642139 15.1654738 26 16 C26.45375 16.495 26.9075 16.99 27.375 17.5 C29.46918881 19.43309736 31.22150692 19.62452796 34 20 C34 20.66 34 21.32 34 22 C31.18172086 24.30586475 29.47201351 24.99074483 25.8125 25.0625 C20.71315761 23.64137179 16.02736031 21.48729283 12 18 C11.85433594 17.19046875 11.70867188 16.3809375 11.55859375 15.546875 C11.21959835 12.74818348 11.21959835 12.74818348 8.49609375 10.9375 C6.45517248 9.64465588 4.41350378 8.35299092 2.37109375 7.0625 C0 5 0 5 -0.33984375 2.25 C-0.22769531 1.5075 -0.11554687 0.765 0 0 Z " fill="#0D344F" transform="translate(16,30)"/>
<path d="M0 0 C0.33 0 0.66 0 1 0 C1.33 2.64 1.66 5.28 2 8 C2.97839844 8.29003906 2.97839844 8.29003906 3.9765625 8.5859375 C8.6771398 9.98640448 13.35840891 11.41208726 18 13 C18 13.99 18 14.98 18 16 C18.99 16 19.98 16 21 16 C21 16.66 21 17.32 21 18 C21.763125 17.95875 22.52625 17.9175 23.3125 17.875 C26 18 26 18 29 20 C29 20.66 29 21.32 29 22 C20.21350549 24.13005928 15.08871076 22.48782914 7.5625 18 C6.73556641 17.52304688 5.90863281 17.04609375 5.05664062 16.5546875 C3.02956888 15.38296973 1.011564 14.19808025 -1 13 C-1 12.34 -1 11.68 -1 11 C-1.928125 10.7834375 -1.928125 10.7834375 -2.875 10.5625 C-5 10 -5 10 -7 9 C-7 7.35 -7 5.7 -7 4 C-4.69 4.33 -2.38 4.66 0 5 C-0.2784375 4.0409375 -0.2784375 4.0409375 -0.5625 3.0625 C-0.706875 2.381875 -0.85125 1.70125 -1 1 C-0.67 0.67 -0.34 0.34 0 0 Z " fill="#17080F" transform="translate(74,58)"/>
<path d="M0 0 C4.95 0 9.9 0 15 0 C15 4.62 15 9.24 15 14 C3.375 14.25 3.375 14.25 0 12 C-0.546875 9.6875 -0.546875 9.6875 -0.75 7 C-0.82734375 6.113125 -0.9046875 5.22625 -0.984375 4.3125 C-1 2 -1 2 0 0 Z " fill="#1C61A2" transform="translate(35,31)"/>
<path d="M0 0 C0.72132551 3.21317729 0.90338327 5.81008731 0 9 C-3.28160373 11.98827602 -7.12322773 13.87828605 -11 16 C-12.83039412 17.22364767 -14.64424725 18.47254126 -16.4375 19.75 C-17.61119141 20.57757813 -17.61119141 20.57757813 -18.80859375 21.421875 C-20.89247557 22.92256708 -22.95182027 24.45103492 -25 26 C-24.34 26.33 -23.68 26.66 -23 27 C-23.33 27.66 -23.66 28.32 -24 29 C-26.06640625 29.4140625 -26.06640625 29.4140625 -28.5625 29.625 C-29.38878906 29.69976562 -30.21507813 29.77453125 -31.06640625 29.8515625 C-32.02353516 29.92503906 -32.02353516 29.92503906 -33 30 C-33 29.34 -33 28.68 -33 28 C-32.38125 27.773125 -31.7625 27.54625 -31.125 27.3125 C-28.78605507 26.17656231 -28.78605507 26.17656231 -28.1875 23.6640625 C-26.67773957 20.27703417 -24.9222173 19.13783323 -21.875 17.0625 C-20.89402344 16.38316406 -19.91304687 15.70382813 -18.90234375 15.00390625 C-17.94457031 14.34261719 -16.98679687 13.68132813 -16 13 C-13.83968042 11.35982157 -11.69552569 9.70169991 -9.55859375 8.03125 C-8 7 -8 7 -6 7 C-5.731875 6.401875 -5.46375 5.80375 -5.1875 5.1875 C-2.37142857 0 -2.37142857 0 0 0 Z " fill="#92142B" transform="translate(128,17)"/>
<path d="M0 0 C0 7.26 0 14.52 0 22 C-1.32 22 -2.64 22 -4 22 C-4.33 20.68 -4.66 19.36 -5 18 C-6.98 18.33 -8.96 18.66 -11 19 C-12.32 17.35 -13.64 15.7 -15 14 C-13.79618552 11.50638429 -12.54571278 9.31856917 -11 7 C-8.375 6.8125 -8.375 6.8125 -6 7 C-5.67 5.02 -5.34 3.04 -5 1 C-2 0 -2 0 0 0 Z " fill="#95162B" transform="translate(128,45)"/>
<path d="M0 0 C0 0.99 0 1.98 0 3 C-1.65 3.33 -3.3 3.66 -5 4 C-5 5.65 -5 7.3 -5 9 C-3.35 9 -1.7 9 0 9 C0 9.99 0 10.98 0 12 C-1.32 12.33 -2.64 12.66 -4 13 C-4 15.97 -4 18.94 -4 22 C-7.63 22 -11.26 22 -15 22 C-13.35 20.02 -11.7 18.04 -10 16 C-12.97 16 -15.94 16 -19 16 C-18.34 14.02 -17.68 12.04 -17 10 C-13 10 -13 10 -11.25 11.5 C-10.8375 11.995 -10.425 12.49 -10 13 C-10.33 11.35 -10.66 9.7 -11 8 C-10.34 8 -9.68 8 -9 8 C-8.87625 6.865625 -8.7525 5.73125 -8.625 4.5625 C-8.41875 3.386875 -8.2125 2.21125 -8 1 C-5.29120665 -0.35439668 -2.99066732 -0.06501451 0 0 Z " fill="#3A57AA" transform="translate(54,56)"/>
<path d="M0 0 C1.32 0 2.64 0 4 0 C4.33 0.66 4.66 1.32 5 2 C5.66 1.67 6.32 1.34 7 1 C6.30058404 4.14737182 5.23921302 7.02588876 4 10 C5.32 10 6.64 10 8 10 C8 10.99 8 11.98 8 13 C6.02 13 4.04 13 2 13 C1.67 14.32 1.34 15.64 1 17 C0.01 17 -0.98 17 -2 17 C-2 15.68 -2 14.36 -2 13 C-3.65 13 -5.3 13 -7 13 C-7 14.65 -7 16.3 -7 18 C-7.99 18 -8.98 18 -10 18 C-10 14.04 -10 10.08 -10 6 C-8.35 5.67 -6.7 5.34 -5 5 C-4.154375 4.154375 -3.30875 3.30875 -2.4375 2.4375 C-1.633125 1.633125 -0.82875 0.82875 0 0 Z " fill="#4A1D3F" transform="translate(66,50)"/>
<path d="M0 0 C-2.97 0 -5.94 0 -9 0 C-9 0.66 -9 1.32 -9 2 C-7.68 2.66 -6.36 3.32 -5 4 C-6.32 4.33 -7.64 4.66 -9 5 C-9 5.99 -9 6.98 -9 8 C-8.32453125 7.95359375 -7.6490625 7.9071875 -6.953125 7.859375 C0.42367067 7.56089194 0.42367067 7.56089194 3.625 10 C4.305625 10.99 4.305625 10.99 5 12 C4.67 12.33 4.34 12.66 4 13 C3.76572222 15.01594582 3.58663876 17.038474 3.4375 19.0625 C3.35371094 20.16722656 3.26992187 21.27195312 3.18359375 22.41015625 C3.09271484 23.69212891 3.09271484 23.69212891 3 25 C-1.06720859 21.12646801 -4.51147993 16.99359162 -7.875 12.5 C-8.38546875 11.84902344 -8.8959375 11.19804688 -9.421875 10.52734375 C-13.02832647 5.70249651 -13.02832647 5.70249651 -12.8828125 2.09375 C-12 0 -12 0 -11 -1 C-6.17169942 -2.00210012 -4.53815546 -2.26907773 0 0 Z " fill="#63152D" transform="translate(91,81)"/>
<path d="M0 0 C5.41842523 3.4232294 10.82851799 6.85923473 16.1875 10.375 C16.92355469 10.85710937 17.65960938 11.33921875 18.41796875 11.8359375 C18.94003906 12.22007813 19.46210937 12.60421875 20 13 C20 13.33 20 13.66 20 14 C12.74 14 5.48 14 -2 14 C-2.1953125 4.8203125 -2.1953125 4.8203125 -2 2 C-1.34 1.34 -0.68 0.68 0 0 Z " fill="#901630" transform="translate(96,92)"/>
<path d="M0 0 C-2.21928194 2.90802461 -3.92969143 4.95312762 -7 7 C-7 7.99 -7 8.98 -7 10 C-12.94 10 -18.88 10 -25 10 C-25 8.02 -25 6.04 -25 4 C-20.31596238 2.31609951 -15.68901677 1.22488056 -10.8125 0.3125 C-9.74612305 0.09883789 -9.74612305 0.09883789 -8.65820312 -0.11914062 C-5.30624524 -0.75295392 -3.28958077 -1.09652692 0 0 Z " fill="#6E9DE2" transform="translate(27,78)"/>
<path d="M0 0 C-4.80809586 5.82628086 -10.01804955 11.17223502 -15.36987305 16.50024414 C-16.83046259 17.95539571 -18.28553203 19.41591857 -19.74023438 20.87695312 C-20.65740234 21.79283203 -21.57457031 22.70871094 -22.51953125 23.65234375 C-23.35589111 24.48757568 -24.19225098 25.32280762 -25.05395508 26.18334961 C-27 28 -27 28 -28 28 C-28.29240794 24.90805678 -28.2622862 23.40184489 -26.5390625 20.76171875 C-25.90742187 20.07722656 -25.27578125 19.39273437 -24.625 18.6875 C-23.99851562 17.99011719 -23.37203125 17.29273437 -22.7265625 16.57421875 C-21 15 -21 15 -19 15 C-18.94070312 14.45859375 -18.88140625 13.9171875 -18.8203125 13.359375 C-17.63696314 9.95583684 -15.35527447 7.76325684 -12.875 5.25 C-12.41351563 4.74339844 -11.95203125 4.23679687 -11.4765625 3.71484375 C-7.75332613 -0.07999332 -5.19829678 -0.54446001 0 0 Z " fill="#6B1327" transform="translate(124,0)"/>
<path d="M0 0 C0 5.28 0 10.56 0 16 C-6.40247048 13.11888828 -12.74437867 10.18682596 -19 7 C-19 6.67 -19 6.34 -19 6 C-16.03 6 -13.06 6 -10 6 C-10.99 4.68 -11.98 3.36 -13 2 C-8.13112025 0.09994937 -5.57710066 0 0 0 Z " fill="#B0152E" transform="translate(128,80)"/>
<path d="M0 0 C11.875 1.875 11.875 1.875 13 3 C13.14257189 6.33618231 13.04228157 9.65975606 13 13 C8.71 13 4.42 13 0 13 C0 8.71 0 4.42 0 0 Z " fill="#104062" transform="translate(0,57)"/>
<path d="M0 0 C2.36227177 1.29693352 4.68119642 2.62979788 7 4 C7.969375 4.53625 8.93875 5.0725 9.9375 5.625 C12.84438798 8.97232555 12.39314979 11.65543834 12.17578125 15.953125 C12.11777344 16.62859375 12.05976563 17.3040625 12 18 C7.86792947 17.24871445 4.0893915 16.16839757 0 15 C0 10.05 0 5.1 0 0 Z " fill="#2685D8" transform="translate(16,35)"/>
<path d="M0 0 C0.66 0 1.32 0 2 0 C2.28741617 3.08023366 2.23710658 4.62062948 0.57421875 7.28125 C-0.04839844 8.0134375 -0.67101562 8.745625 -1.3125 9.5 C-3.28755609 11.89064906 -5.04475349 14.07573668 -6.625 16.75 C-8.36971311 19.60498509 -10.57843446 21.7093299 -13 24 C-11.68 24.66 -10.36 25.32 -9 26 C-15.75 26.125 -15.75 26.125 -18 25 C-16.46190803 20.24180904 -13.78789533 16.88755613 -10.6875 13.0625 C-10.21376953 12.46759766 -9.74003906 11.87269531 -9.25195312 11.25976562 C-8.3078186 10.07798301 -7.35850389 8.90031846 -6.40380859 7.72705078 C-5.46014042 6.56609275 -4.52566409 5.39760829 -3.60009766 4.22216797 C-2.44485013 2.7777906 -1.22732896 1.38364969 0 0 Z " fill="#6F1C3C" transform="translate(94,19)"/>
<path d="M0 0 C7.01060635 3.50530318 12.21345158 8.86723484 17 15 C11.32431649 15 5.65734378 14.41521789 0 14 C0 9.38 0 4.76 0 0 Z " fill="#144F76" transform="translate(0,15)"/>
<path d="M0 0 C0.75732422 0.04833984 1.51464844 0.09667969 2.29492188 0.14648438 C3.08060547 0.20255859 3.86628906 0.25863281 4.67578125 0.31640625 C5.47306641 0.36861328 6.27035156 0.42082031 7.09179688 0.47460938 C9.05764647 0.60409647 11.0230179 0.74080666 12.98828125 0.87890625 C12.65828125 1.53890625 12.32828125 2.19890625 11.98828125 2.87890625 C9.98828125 3.21223958 7.98828125 3.54557292 5.98828125 3.87890625 C5.65828125 4.53890625 5.32828125 5.19890625 4.98828125 5.87890625 C7.95828125 6.37390625 7.95828125 6.37390625 10.98828125 6.87890625 C10.98828125 8.52890625 10.98828125 10.17890625 10.98828125 11.87890625 C6.36828125 11.87890625 1.74828125 11.87890625 -3.01171875 11.87890625 C-1.01171875 9.87890625 -1.01171875 9.87890625 1.61328125 9.75390625 C2.39703125 9.79515625 3.18078125 9.83640625 3.98828125 9.87890625 C3.98828125 9.21890625 3.98828125 8.55890625 3.98828125 7.87890625 C1.34828125 7.21890625 -1.29171875 6.55890625 -4.01171875 5.87890625 C-4.01171875 5.21890625 -4.01171875 4.55890625 -4.01171875 3.87890625 C-5.00171875 3.87890625 -5.99171875 3.87890625 -7.01171875 3.87890625 C-7.01171875 2.88890625 -7.01171875 1.89890625 -7.01171875 0.87890625 C-4.18726283 -0.06257906 -2.87000257 -0.1942107 0 0 Z " fill="#580F20" transform="translate(99.01171875,70.12109375)"/>
<path d="M0 0 C7.35678392 -0.36180905 7.35678392 -0.36180905 10 1.125 C11.47901666 3.89815624 11.38601984 5.91184125 11 9 C10 10.875 10 10.875 8 12 C5.28121737 12.24131207 2.7407889 12.1347929 0 12 C0 8.04 0 4.08 0 0 Z " fill="#C1BAB8" transform="translate(75,54)"/>
<path d="M0 0 C1.48521677 0.75911079 2.96303425 1.53271234 4.4375 2.3125 C5.26121094 2.74175781 6.08492187 3.17101563 6.93359375 3.61328125 C9 5 9 5 10 8 C8.68 8 7.36 8 6 8 C5.87882812 8.62648438 5.75765625 9.25296875 5.6328125 9.8984375 C5.46523438 10.71570312 5.29765625 11.53296875 5.125 12.375 C4.96257813 13.18710937 4.80015625 13.99921875 4.6328125 14.8359375 C4 17 4 17 2 19 C-0.625 18.625 -0.625 18.625 -3 18 C-3 17.34 -3 16.68 -3 16 C-1.68 16 -0.36 16 1 16 C1 15.01 1 14.02 1 13 C-0.32 12.67 -1.64 12.34 -3 12 C-1.35 11.67 0.3 11.34 2 11 C2 10.01 2 9.02 2 8 C0.68 8 -0.64 8 -2 8 C-1.125 1.125 -1.125 1.125 0 0 Z " fill="#185079" transform="translate(30,49)"/>
<path d="M0 0 C5.94 0 11.88 0 18 0 C16.68 0.99 15.36 1.98 14 3 C13.36320313 3.50660156 12.72640625 4.01320313 12.0703125 4.53515625 C8.17805984 7.59112169 4.88898666 9.77775334 0 11 C0 7.37 0 3.74 0 0 Z " fill="#3175C1" transform="translate(0,88)"/>
<path d="M0 0 C1.32 0 2.64 0 4 0 C5.76083043 2.05582274 7.21020988 4.0034217 8.6875 6.25 C9.56239741 7.52960738 10.43873018 8.80823439 11.31640625 10.0859375 C11.75871582 10.7365918 12.20102539 11.38724609 12.65673828 12.05761719 C14.7317913 15.05818458 16.92165569 17.9679884 19.125 20.875 C19.87007812 21.86242187 20.61515625 22.84984375 21.3828125 23.8671875 C21.91648437 24.57101563 22.45015625 25.27484375 23 26 C23.33 22.04 23.66 18.08 24 14 C24.33 14 24.66 14 25 14 C25.054138 16.24973447 25.09285491 18.49984383 25.125 20.75 C25.14820312 22.00296875 25.17140625 23.2559375 25.1953125 24.546875 C25.01537302 27.72820492 24.68998582 29.36521896 23 32 C22.319375 30.7934375 22.319375 30.7934375 21.625 29.5625 C20.25274335 26.91143428 20.25274335 26.91143428 18 26 C17.03782116 24.32192671 16.07925945 22.64159075 15.14599609 20.94726562 C13.31215904 17.8312272 11.06944886 15.06704336 8.8125 12.25 C4.1329722 6.3989166 4.1329722 6.3989166 3 3 C2.34 3 1.68 3 1 3 C0.67 2.01 0.34 1.02 0 0 Z " fill="#0E3A59" transform="translate(10,0)"/>
<path d="M0 0 C3.75 -0.375 3.75 -0.375 7 0 C4.16612078 3.37923055 1.34391349 6.66372903 -1.8125 9.75 C-4.20200031 11.88171271 -4.20200031 11.88171271 -5 15 C-7.78462997 18.01041078 -10.64675101 20.64030627 -14 23 C-14.50600987 19.37137661 -14.10539559 18.1494445 -11.953125 15.09765625 C-11.06427285 14.07521174 -10.16273197 13.06368493 -9.25 12.0625 C-6.56107357 9.03354944 -4.06006807 6.0962658 -1.90625 2.64453125 C-1.2771875 1.77183594 -0.648125 0.89914063 0 0 Z " fill="#4B0F1D" transform="translate(110,0)"/>
<path d="M0 0 C4.62 0 9.24 0 14 0 C13.01 0.495 13.01 0.495 12 1 C12 3.31 12 5.62 12 8 C12.66 8 13.32 8 14 8 C13.67 8.99 13.34 9.98 13 11 C12.01 10.34 11.02 9.68 10 9 C7.49103314 8.54398739 7.49103314 8.54398739 4.8125 8.375 C3.91144531 8.30023438 3.01039062 8.22546875 2.08203125 8.1484375 C1.39496094 8.09945312 0.70789063 8.05046875 0 8 C0 7.01 0 6.02 0 5 C0.99 4.67 1.98 4.34 3 4 C2.01 3.34 1.02 2.68 0 2 C0 1.34 0 0.68 0 0 Z " fill="#7A1B3A" transform="translate(82,81)"/>
<path d="M0 0 C6.3308375 -0.69063682 10.07482977 0.40270814 15.27734375 4.1328125 C17.31981518 6.34664775 17.56779098 7.40146923 17.5625 10.375 C17.376875 11.57125 17.19125 12.7675 17 14 C12.6436846 10.75947111 8.30806125 7.49194001 4 4.1875 C3.236875 3.60355469 2.47375 3.01960938 1.6875 2.41796875 C1.130625 1.95003906 0.57375 1.48210937 0 1 C0 0.67 0 0.34 0 0 Z " fill="#490D18" transform="translate(111,106)"/>
<path d="M0 0 C0.66 0.33 1.32 0.66 2 1 C1.34 1.66 0.68 2.32 0 3 C-0.28875 3.845625 -0.5775 4.69125 -0.875 5.5625 C-2 8 -2 8 -4.125 8.8125 C-4.74375 8.874375 -5.3625 8.93625 -6 9 C-6 9.66 -6 10.32 -6 11 C-5.01 10.67 -4.02 10.34 -3 10 C-0.66700175 9.96045766 1.66708189 9.95598268 4 10 C-1.10668601 15.10668601 -11.08559626 15.66172831 -18 17 C-15.31158141 14.74754119 -13.35358125 13.11786042 -10 12 C-10 10.68 -10 9.36 -10 8 C-8.68 7.67 -7.36 7.34 -6 7 C-5.67 5.68 -5.34 4.36 -5 3 C-4.01 3 -3.02 3 -2 3 C-2 2.34 -2 1.68 -2 1 C-1.34 0.67 -0.68 0.34 0 0 Z " fill="#5D1327" transform="translate(101,36)"/>
<path d="M0 0 C0.99 0 1.98 0 3 0 C3 3.96 3 7.92 3 12 C2.01 12 1.02 12 0 12 C0 10.68 0 9.36 0 8 C-1.65 8 -3.3 8 -5 8 C-5 9.65 -5 11.3 -5 13 C-5.99 13 -6.98 13 -8 13 C-8 9.04 -8 5.08 -8 1 C-7.01 1 -6.02 1 -5 1 C-5 2.32 -5 3.64 -5 5 C-3.35 5 -1.7 5 0 5 C0 3.35 0 1.7 0 0 Z " fill="#D6D2D2" transform="translate(64,55)"/>
<path d="M0 0 C1.98 0 3.96 0 6 0 C8 2 8 2 8.0625 5.4375 C8.041875 6.613125 8.02125 7.78875 8 9 C8.33 9.99 8.66 10.98 9 12 C8.01 12 7.02 12 6 12 C5.34 11.01 4.68 10.02 4 9 C3.67 10.32 3.34 11.64 3 13 C2.01 13 1.02 13 0 13 C0 8.71 0 4.42 0 0 Z " fill="#B9C2CA" transform="translate(13,58)"/>
<path d="M0 0 C2.29141286 -0.05384521 4.58318188 -0.09272087 6.875 -0.125 C8.78925781 -0.15980469 8.78925781 -0.15980469 10.7421875 -0.1953125 C14 0 14 0 16 2 C16.1953125 4.1640625 16.1953125 4.1640625 16.125 6.625 C16.10695313 7.44226562 16.08890625 8.25953125 16.0703125 9.1015625 C16.04710938 9.72804688 16.02390625 10.35453125 16 11 C14.26847042 9.92044741 12.53988316 8.83617488 10.8125 7.75 C9.84957031 7.14671875 8.88664063 6.5434375 7.89453125 5.921875 C5.12594673 4.08362455 2.56042049 2.11574051 0 0 Z " fill="#60A6E5" transform="translate(0,29)"/>
<path d="M0 0 C1.49579604 0.20092783 2.99696724 0.36336066 4.5 0.5 C8.77777778 0.88888889 8.77777778 0.88888889 11 2 C10.67 2.99 10.34 3.98 10 5 C2.36646462 6.65946421 -4.92258255 5.30279481 -12 2 C-12 1.67 -12 1.34 -12 1 C-10.37681021 0.63762737 -8.7513642 0.28534843 -7.125 -0.0625 C-6.22007813 -0.25972656 -5.31515625 -0.45695312 -4.3828125 -0.66015625 C-2 -1 -2 -1 0 0 Z " fill="#250F16" transform="translate(88,65)"/>
<path d="M0 0 C2.3125 0.0625 2.3125 0.0625 5 1 C7.16885104 4.96376224 8 7.46077616 8 12 C7.01 11.67 6.02 11.34 5 11 C5 10.34 5 9.68 5 9 C3.02463255 9.34786708 3.02463255 9.34786708 1 10 C0.67 10.66 0.34 11.32 0 12 C-0.99 12 -1.98 12 -3 12 C-2.68950274 10.56206608 -2.3765224 9.1246682 -2.0625 7.6875 C-1.88847656 6.88699219 -1.71445312 6.08648437 -1.53515625 5.26171875 C-1 3 -1 3 0 0 Z " fill="#DCDFE0" transform="translate(36,57)"/>
<path d="M0 0 C0.99 0 1.98 0 3 0 C3.33 0.99 3.66 1.98 4 3 C4.66 2.01 5.32 1.02 6 0 C7.32 0.33 8.64 0.66 10 1 C9.01 2.32 8.02 3.64 7 5 C7.309375 5.598125 7.61875 6.19625 7.9375 6.8125 C9 9 9 9 10 12 C8.125 11.6875 8.125 11.6875 6 11 C5.34 10.01 4.68 9.02 4 8 C3.67 9.32 3.34 10.64 3 12 C2.01 12 1.02 12 0 12 C0 8.04 0 4.08 0 0 Z " fill="#E5DDDB" transform="translate(107,52)"/>
<path d="M0 0 C3.96 0 7.92 0 12 0 C12 0.99 12 1.98 12 3 C11.01 3 10.02 3 9 3 C9 6.63 9 10.26 9 14 C8.34 12.68 7.68 11.36 7 10 C6.360625 9.7525 5.72125 9.505 5.0625 9.25 C1.62368444 7.16586936 1.20450694 3.73397152 0 0 Z " fill="#030405" transform="translate(51,46)"/>
<path d="M0 0 C0.66 0.474375 1.32 0.94875 2 1.4375 C4.78962497 2.89042967 6.11208318 3.23873231 9.125 3.5 C13.15268188 4.01970089 13.537521 4.18573828 16 7 C18.60611077 7.72197162 18.60611077 7.72197162 21 8 C21 8.66 21 9.32 21 10 C16.00645833 11.33161111 13.4475479 11.71253254 8.73046875 9.390625 C5.64812233 7.38691701 2.73362409 5.46072423 0 3 C0 2.01 0 1.02 0 0 Z " fill="#0A273C" transform="translate(29,42)"/>
<path d="M0 0 C2.64 0 5.28 0 8 0 C8 0.99 8 1.98 8 3 C6.35 3 4.7 3 3 3 C3 3.66 3 4.32 3 5 C4.65 5 6.3 5 8 5 C8 5.66 8 6.32 8 7 C7.360625 7.12375 6.72125 7.2475 6.0625 7.375 C5.0415625 7.684375 5.0415625 7.684375 4 8 C3.67 8.66 3.34 9.32 3 10 C4.98 10 6.96 10 9 10 C9 10.66 9 11.32 9 12 C6.03 12 3.06 12 0 12 C0 8.04 0 4.08 0 0 Z " fill="#D4CECD" transform="translate(87,53)"/>
<path d="M0 0 C2.64 0 5.28 0 8 0 C8 0.66 8 1.32 8 2 C7.01 2.33 6.02 2.66 5 3 C5.99 3.33 6.98 3.66 8 4 C8 4.99 8 5.98 8 7 C6.68 7 5.36 7 4 7 C4 7.66 4 8.32 4 9 C5.65 9 7.3 9 9 9 C9 9.66 9 10.32 9 11 C6.36 11.33 3.72 11.66 1 12 C0.67 8.04 0.34 4.08 0 0 Z " fill="#D6DADF" transform="translate(23,58)"/>
<path d="M0 0 C0.33 0 0.66 0 1 0 C1 3.3 1 6.6 1 10 C-3.29 10 -7.58 10 -12 10 C-12 8.35 -12 6.7 -12 5 C-8.04 5 -4.08 5 0 5 C0 3.35 0 1.7 0 0 Z " fill="#216094" transform="translate(12,60)"/>
<path d="M0 0 C5.26371362 -0.50130606 7.9090934 0.68831371 12 4 C12 4.66 12 5.32 12 6 C10.35 6 8.7 6 7 6 C8.83333333 9.16666667 8.83333333 9.16666667 12 11 C5.07 10.505 5.07 10.505 -2 10 C-2 9.67 -2 9.34 -2 9 C0.64 9 3.28 9 6 9 C6 8.34 6 7.68 6 7 C4.02 7 2.04 7 0 7 C0.33 6.01 0.66 5.02 1 4 C2.32 4 3.64 4 5 4 C5 3.34 5 2.68 5 2 C3.35 2 1.7 2 0 2 C0 1.34 0 0.68 0 0 Z " fill="#4C202C" transform="translate(90,56)"/>
<path d="M0 0 C0.66 0.66 1.32 1.32 2 2 C1.34 4.31 0.68 6.62 0 9 C-4.16138263 9.08159574 -7.9472484 8.98248524 -12 8 C-12 6.02 -12 4.04 -12 2 C-7.6822542 2.50797009 -3.96697886 3.19682779 0 5 C0 3.35 0 1.7 0 0 Z " fill="#195B8F" transform="translate(28,48)"/>
<path d="M0 0 C0 5.94 0 11.88 0 18 C-1.32 18.33 -2.64 18.66 -4 19 C-4.08071788 16.20775927 -4.14035408 13.41783434 -4.1875 10.625 C-4.21263672 9.8309375 -4.23777344 9.036875 -4.26367188 8.21875 C-4.29004405 6.14413852 -4.15486462 4.06899135 -4 2 C-1 0 -1 0 0 0 Z " fill="#D7293D" transform="translate(128,27)"/>
<path d="M0 0 C2.31 0 4.62 0 7 0 C7 0.66 7 1.32 7 2 C5.35 2 3.7 2 2 2 C2 2.66 2 3.32 2 4 C2.804375 4.2475 3.60875 4.495 4.4375 4.75 C7 6 7 6 7.9375 8 C7.958125 8.66 7.97875 9.32 8 10 C6 12 6 12 2.875 12.125 C1.451875 12.063125 1.451875 12.063125 0 12 C-0.33 11.01 -0.66 10.02 -1 9 C0.65 9 2.3 9 4 9 C4 8.34 4 7.68 4 7 C1.525 6.01 1.525 6.01 -1 5 C-0.67 3.35 -0.34 1.7 0 0 Z " fill="#DAD3D4" transform="translate(98,53)"/>
<path d="M0 0 C1.32 0.33 2.64 0.66 4 1 C4 1.66 4 2.32 4 3 C4.66 3 5.32 3 6 3 C7.48324737 4.77989685 8.88670982 6.62663526 10.25 8.5 C11.05596848 9.59897381 11.86195814 10.69793209 12.66796875 11.796875 C13.43753906 12.85390625 14.20710938 13.9109375 15 15 C16.18442259 16.58563673 17.37136434 18.16939994 18.5625 19.75 C19.375 20.83333333 20.1875 21.91666667 21 23 C20.67 23.66 20.34 24.32 20 25 C4 7.79841897 4 7.79841897 4 4 C3.34 4 2.68 4 2 4 C1.34 2.68 0.68 1.36 0 0 Z " fill="#13496E" transform="translate(7,0)"/>
<path d="M0 0 C0 5.61 0 11.22 0 17 C-1.32 17 -2.64 17 -4 17 C-4 11.72 -4 6.44 -4 1 C-2 0 -2 0 0 0 Z " fill="#BE152D" transform="translate(128,45)"/>
<path d="M0 0 C0.66 0.33 1.32 0.66 2 1 C1.60167969 1.45890625 1.20335938 1.9178125 0.79296875 2.390625 C-2.60015709 6.31674827 -2.60015709 6.31674827 -5.75 10.4375 C-6.1625 10.953125 -6.575 11.46875 -7 12 C-7.66 12 -8.32 12 -9 12 C-9.2475 12.5775 -9.495 13.155 -9.75 13.75 C-11.61724008 17.11103214 -14.34536915 19.38387684 -17.125 22 C-18.93237858 23.92787048 -19.96574684 25.58674262 -21 28 C-21.29240794 24.90805678 -21.2622862 23.40184489 -19.5390625 20.76171875 C-18.90742187 20.07722656 -18.27578125 19.39273437 -17.625 18.6875 C-16.99851562 17.99011719 -16.37203125 17.29273437 -15.7265625 16.57421875 C-14 15 -14 15 -12 15 C-11.94972656 14.45859375 -11.89945313 13.9171875 -11.84765625 13.359375 C-10.59706092 9.87845527 -8.05983926 7.74465982 -5.4375 5.25 C-4.91736328 4.74339844 -4.39722656 4.23679687 -3.86132812 3.71484375 C-2.58089916 2.46965595 -1.29132446 1.23388498 0 0 Z " fill="#5E1123" transform="translate(117,0)"/>
<path d="M0 0 C4.455 0.99 4.455 0.99 9 2 C9 2.66 9 3.32 9 4 C9.763125 3.95875 10.52625 3.9175 11.3125 3.875 C14 4 14 4 17 6 C17 6.66 17 7.32 17 8 C12.9472484 8.98248524 9.16138263 9.08159574 5 9 C5.99 8.34 6.98 7.68 8 7 C5.36 5.68 2.72 4.36 0 3 C0 2.01 0 1.02 0 0 Z " fill="#260910" transform="translate(86,72)"/>
<path d="M0 0 C1.32 0 2.64 0 4 0 C4 2.64 4 5.28 4 8 C5.65 8 7.3 8 9 8 C6.21846556 11.24512351 4.26615224 11.86692388 0 14 C0 9.38 0 4.76 0 0 Z " fill="#225694" transform="translate(28,70)"/>
<path d="M0 0 C0.99 0 1.98 0 3 0 C3 3.96 3 7.92 3 12 C0.36 12 -2.28 12 -5 12 C-5 11.34 -5 10.68 -5 10 C-5.66 9.67 -6.32 9.34 -7 9 C-5.8553125 8.38125 -5.8553125 8.38125 -4.6875 7.75 C-2.0633358 6.04124191 -0.69678024 4.58982247 1 2 C0.67 1.34 0.34 0.68 0 0 Z " fill="#5883DB" transform="translate(25,76)"/>
<path d="M0 0 C0 0.99 0 1.98 0 3 C-1.65 3.33 -3.3 3.66 -5 4 C-5 5.65 -5 7.3 -5 9 C-3.35 9 -1.7 9 0 9 C0 9.99 0 10.98 0 12 C-3.375 12.1875 -3.375 12.1875 -7 12 C-9.31282587 8.53076119 -9.42478586 7.07794425 -9 3 C-6.77089201 -0.71517998 -4.03410755 -0.2689405 0 0 Z " fill="#D9DADC" transform="translate(54,56)"/>
<path d="M0 0 C5.61 0 11.22 0 17 0 C15.12196436 5.63410692 14.23845497 7.30493669 10 11 C9.67 11 9.34 11 9 11 C9 8.69 9 6.38 9 4 C9.99 4 10.98 4 12 4 C12 3.01 12 2.02 12 1 C8.04 1 4.08 1 0 1 C0 0.67 0 0.34 0 0 Z " fill="#110E18" transform="translate(51,45)"/>
<path d="M0 0 C1.77108948 1.12459671 3.54186236 2.24969203 5.3125 3.375 C6.29863281 4.00148438 7.28476563 4.62796875 8.30078125 5.2734375 C10.21287929 6.49651613 12.1114034 7.7409356 14 9 C13.67 9.99 13.34 10.98 13 12 C8.35236542 10.36704731 8.35236542 10.36704731 6.5 8.4375 C4.49293911 6.51406665 2.70332474 6.36531415 0 6 C0 5.01 0 4.02 0 3 C-0.66 2.67 -1.32 2.34 -2 2 C-1.34 1.34 -0.68 0.68 0 0 Z " fill="#7A142B" transform="translate(96,92)"/>
<path d="M0 0 C8.86956522 4.86956522 8.86956522 4.86956522 12 8 C12.12890625 10.62890625 12.12890625 10.62890625 12 13 C10.186508 11.85573734 8.37423275 10.70954608 6.5625 9.5625 C5.55316406 8.92441406 4.54382813 8.28632812 3.50390625 7.62890625 C1 6 1 6 0 5 C-0.04063832 3.33382885 -0.042721 1.66611905 0 0 Z " fill="#1B73BE" transform="translate(16,35)"/>
<path d="M0 0 C2.79192205 -0.05380578 5.5828141 -0.09357669 8.375 -0.125 C9.1690625 -0.14175781 9.963125 -0.15851563 10.78125 -0.17578125 C12.85492015 -0.19335473 14.92883241 -0.10335168 17 0 C17.66 0.66 18.32 1.32 19 2 C12.73 2.99 6.46 3.98 0 5 C0 3.35 0 1.7 0 0 Z " fill="#2585D8" transform="translate(0,70)"/>
<path d="M0 0 C2.31 0.66 4.62 1.32 7 2 C6.88590407 3.45922693 6.75834456 4.91740598 6.625 6.375 C6.55539063 7.18710937 6.48578125 7.99921875 6.4140625 8.8359375 C6 11 6 11 4 13 C1.375 12.625 1.375 12.625 -1 12 C-1 11.34 -1 10.68 -1 10 C0.32 10 1.64 10 3 10 C3 9.01 3 8.02 3 7 C1.68 6.67 0.36 6.34 -1 6 C0.65 5.67 2.3 5.34 4 5 C4 4.01 4 3.02 4 2 C2.68 2 1.36 2 0 2 C0 1.34 0 0.68 0 0 Z " fill="#133450" transform="translate(28,55)"/>
<path d="M0 0 C-1.54049824 3.46612104 -3.30927882 6.30927882 -6 9 C-9.25 9.3125 -9.25 9.3125 -12 9 C-12 7.68 -12 6.36 -12 5 C-10.390625 3.515625 -10.390625 3.515625 -8.25 2.25 C-7.20585937 1.60804687 -7.20585937 1.60804687 -6.140625 0.953125 C-4 0 -4 0 0 0 Z " fill="#2061AA" transform="translate(15,97)"/>
<path d="M0 0 C1.60379341 -0.05416188 3.20811406 -0.09286638 4.8125 -0.125 C5.70582031 -0.14820313 6.59914063 -0.17140625 7.51953125 -0.1953125 C10 0 10 0 13 2 C11.02 2.33 9.04 2.66 7 3 C6.67 5.31 6.34 7.62 6 10 C5.01 9.67 4.02 9.34 3 9 C2.05078125 6.93359375 2.05078125 6.93359375 1.3125 4.4375 C1.06113281 3.61121094 0.80976562 2.78492188 0.55078125 1.93359375 C0.36902344 1.29550781 0.18726563 0.65742187 0 0 Z " fill="#1E4565" transform="translate(39,54)"/>
<path d="M0 0 C1.98 0 3.96 0 6 0 C5.01 0.66 4.02 1.32 3 2 C2.26656572 5.06556598 2.26656572 5.06556598 2 8 C3.94074861 7.72382467 3.94074861 7.72382467 6 7 C6.66 6.01 7.32 5.02 8 4 C8.625 6.375 8.625 6.375 9 9 C7 11 7 11 3.375 11.125 C2.26125 11.08375 1.1475 11.0425 0 11 C0 7.37 0 3.74 0 0 Z " fill="#E1E0DF" transform="translate(76,55)"/>
<path d="M0 0 C3 1 3 1 4.1875 3.0625 C4.455625 3.701875 4.72375 4.34125 5 5 C5.33 4.34 5.66 3.68 6 3 C6.66 3 7.32 3 8 3 C7.34 5.97 6.68 8.94 6 12 C4.68 11.01 3.36 10.02 2 9 C1.67 10.65 1.34 12.3 1 14 C0.34 13.67 -0.32 13.34 -1 13 C-0.835 11.906875 -0.67 10.81375 -0.5 9.6875 C0.06718184 6.12474127 0.06718184 6.12474127 0 3 C0 2.01 0 1.02 0 0 Z " fill="#12476D" transform="translate(28,26)"/>
<path d="M0 0 C3 1 3 1 4.1875 3.0625 C4.455625 3.701875 4.72375 4.34125 5 5 C3.58603098 5.50757862 2.16868271 6.00574925 0.75 6.5 C-0.43335938 6.91765625 -0.43335938 6.91765625 -1.640625 7.34375 C-4 8 -4 8 -8 8 C-7.34 6.02 -6.68 4.04 -6 2 C-2 2 -2 2 -0.25 3.5 C0.36875 4.2425 0.36875 4.2425 1 5 C0.67 3.35 0.34 1.7 0 0 Z " fill="#2C5B8F" transform="translate(43,64)"/>
<path d="M0 0 C-1.25202867 3.75608601 -2.63063573 4.14684965 -6 6 C-6.33 6.33 -6.66 6.66 -7 7 C-8.99958364 7.04080783 -11.00045254 7.04254356 -13 7 C-13 5.68 -13 4.36 -13 3 C-11.39743892 2.49487756 -9.79288208 1.99608373 -8.1875 1.5 C-7.29417969 1.2215625 -6.40085937 0.943125 -5.48046875 0.65625 C-3 0 -3 0 0 0 Z " fill="#7BACE7" transform="translate(15,81)"/>
<path d="M0 0 C2.05078125 0.03255208 4.1015625 0.06510417 6.15234375 0.09765625 C5.83984375 1.97265625 5.83984375 1.97265625 5.15234375 4.09765625 C2.15234375 6.09765625 2.15234375 6.09765625 -0.53515625 5.72265625 C-1.29828125 5.51640625 -2.06140625 5.31015625 -2.84765625 5.09765625 C-2.84765625 0.15051037 -2.84765625 0.15051037 0 0 Z " fill="#82172A" transform="translate(116.84765625,54.90234375)"/>
<path d="M0 0 C0.99 1.485 0.99 1.485 2 3 C1.01 3.495 1.01 3.495 0 4 C0 2.68 0 1.36 0 0 Z M-2 4 C-1.34 4 -0.68 4 0 4 C-0.33 6.31 -0.66 8.62 -1 11 C0.32 11.33 1.64 11.66 3 12 C1.75 14 1.75 14 0 16 C-1.32 16 -2.64 16 -4 16 C-3.34 14.35 -2.68 12.7 -2 11 C-2.66 11 -3.32 11 -4 11 C-3.125 5.125 -3.125 5.125 -2 4 Z " fill="#381731" transform="translate(70,34)"/>
<path d="M0 0 C5.11698731 -0.42515028 7.66835485 0.62716917 11.875 3.5 C12.84179688 4.1496875 13.80859375 4.799375 14.8046875 5.46875 C15.52914062 5.9740625 16.25359375 6.479375 17 7 C13.22134307 8.25955231 11.96588214 7.48087189 8.3125 6.0625 C7.31863281 5.68222656 6.32476562 5.30195312 5.30078125 4.91015625 C4.16189453 4.45962891 4.16189453 4.45962891 3 4 C3 3.34 3 2.68 3 2 C2.01 1.67 1.02 1.34 0 1 C0 0.67 0 0.34 0 0 Z " fill="#90152D" transform="translate(96,82)"/>
<path d="M0 0 C1.32 0.66 2.64 1.32 4 2 C3.34 2 2.68 2 2 2 C2 3.98 2 5.96 2 8 C0.35 8.33 -1.3 8.66 -3 9 C-2.67 9.99 -2.34 10.98 -2 12 C-3.32 11.67 -4.64 11.34 -6 11 C-6.042721 9.33388095 -6.04063832 7.66617115 -6 6 C-5 5 -5 5 -2.4375 4.9375 C-1.2309375 4.9684375 -1.2309375 4.9684375 0 5 C0 3.35 0 1.7 0 0 Z " fill="#2C3F55" transform="translate(54,54)"/>
<path d="M0 0 C-1.1446875 1.11375 -1.1446875 1.11375 -2.3125 2.25 C-4.9659943 4.77820993 -4.9659943 4.77820993 -6.4375 7.25 C-8.66461518 9.744369 -10.76392726 9.71234909 -14 10 C-11.50912479 4.35565223 -6.66951893 -1.21263981 0 0 Z " fill="#210B14" transform="translate(88,45)"/>
<path d="M0 0 C0.04241723 2.33294775 0.04092937 4.66702567 0 7 C-1 8 -1 8 -3.06640625 8.09765625 C-3.89011719 8.08605469 -4.71382813 8.07445312 -5.5625 8.0625 C-6.38878906 8.05347656 -7.21507813 8.04445313 -8.06640625 8.03515625 C-8.70449219 8.02355469 -9.34257813 8.01195312 -10 8 C-2.21621622 0 -2.21621622 0 0 0 Z " fill="#7E1A39" transform="translate(96,36)"/>
<path d="M0 0 C3.96 0.33 7.92 0.66 12 1 C10.52436775 3.9512645 8.49920648 4.06923915 5.4375 5.125 C4.42558594 5.47820312 3.41367187 5.83140625 2.37109375 6.1953125 C1.58863281 6.46085937 0.80617187 6.72640625 0 7 C0 4.69 0 2.38 0 0 Z " fill="#2067AF" transform="translate(0,88)"/>
<path d="M0 0 C2.99220268 1.36370299 5.29026529 2.94908083 7.75 5.125 C8.67039062 5.93324219 8.67039062 5.93324219 9.609375 6.7578125 C10.06828125 7.16773438 10.5271875 7.57765625 11 8 C8.25700998 9.37149501 6.91518346 8.83290956 4 8 C1.6875 6.75 1.6875 6.75 0 5 C-0.25 2.3125 -0.25 2.3125 0 0 Z " fill="#134265" transform="translate(16,30)"/>
<path d="M0 0 C0.66 0.66 1.32 1.32 2 2 C-0.64 4.31 -3.28 6.62 -6 9 C-6.33 8.34 -6.66 7.68 -7 7 C-9.475 8.485 -9.475 8.485 -12 10 C-12 8.68 -12 7.36 -12 6 C-10.7625 5.7525 -9.525 5.505 -8.25 5.25 C-4.48560327 4.3289242 -2.46922107 3.08652634 0 0 Z " fill="#1C558F" transform="translate(12,103)"/>
<path d="M0 0 C1.65 0 3.3 0 5 0 C3.515 2.475 3.515 2.475 2 5 C2.99 5.33 3.98 5.66 5 6 C4.34 7.98 3.68 9.96 3 12 C2.01 12 1.02 12 0 12 C0 8.04 0 4.08 0 0 Z " fill="#DEE0E2" transform="translate(13,59)"/>
<path d="M0 0 C10.88028169 2.97887324 10.88028169 2.97887324 15 6 C15 6.33 15 6.66 15 7 C8.89357521 7.78287497 4.99540421 5.10825151 0 2 C0 1.34 0 0.68 0 0 Z " fill="#0B0406" transform="translate(80,73)"/>
<path d="M0 0 C1.65 0.33 3.3 0.66 5 1 C5.33 2.32 5.66 3.64 6 5 C5.34 5 4.68 5 4 5 C4 5.66 4 6.32 4 7 C2.02 7 0.04 7 -2 7 C-1.34 4.69 -0.68 2.38 0 0 Z " fill="#CACDCE" transform="translate(36,57)"/>
<path d="M0 0 C0.33 0 0.66 0 1 0 C1.054138 2.24973447 1.09285491 4.49984383 1.125 6.75 C1.14820313 8.00296875 1.17140625 9.2559375 1.1953125 10.546875 C1.01537302 13.72820492 0.68998582 15.36521896 -1 18 C-5.06153846 12.58461538 -5.06153846 12.58461538 -4.75 9.625 C-4.5025 9.08875 -4.255 8.5525 -4 8 C-3.01 9.32 -2.02 10.64 -1 12 C-0.67 8.04 -0.34 4.08 0 0 Z " fill="#0B2D45" transform="translate(34,14)"/>
<path d="M0 0 C0 3 0 3 -2 5.1875 C-2.66 5.785625 -3.32 6.38375 -4 7 C-3.67 7.66 -3.34 8.32 -3 9 C-5.31 10.65 -7.62 12.3 -10 14 C-9.54261927 9.31808451 -7.80889606 7.36895826 -4.4375 4.1875 C-3.61121094 3.39730469 -2.78492187 2.60710938 -1.93359375 1.79296875 C-1.29550781 1.20128906 -0.65742187 0.60960938 0 0 Z " fill="#83162F" transform="translate(106,18)"/>
<path d="M0 0 C5.28 0.33 10.56 0.66 16 1 C15.67 1.99 15.34 2.98 15 4 C15 3.34 15 2.68 15 2 C12.36 2 9.72 2 7 2 C6.67 3.98 6.34 5.96 6 8 C5.7525 7.38125 5.505 6.7625 5.25 6.125 C3.79371361 3.64931313 2.62187494 3.04874998 0 2 C0 1.34 0 0.68 0 0 Z " fill="#4B87BE" transform="translate(16,56)"/>
<path d="M0 0 C3.63 0 7.26 0 11 0 C11 1.32 11 2.64 11 4 C8.69 4 6.38 4 4 4 C3.67 3.01 3.34 2.02 3 1 C2.01 0.67 1.02 0.34 0 0 Z " fill="#144269" transform="translate(39,45)"/>
<path d="M0 0 C1.32 0.33 2.64 0.66 4 1 C-0.62 5.62 -5.24 10.24 -10 15 C-10 12 -10 12 -8.57421875 10.3515625 C-7.95160156 9.78179687 -7.32898438 9.21203125 -6.6875 8.625 C-3.88695643 5.95484611 -1.78910123 3.47296122 0 0 Z " fill="#7B1429" transform="translate(120,0)"/>
<path d="M0 0 C-0.99 1.98 -1.98 3.96 -3 6 C-3.99 6 -4.98 6 -6 6 C-6 5.34 -6 4.68 -6 4 C-6.99 4 -7.98 4 -9 4 C-9 3.01 -9 2.02 -9 1 C-5.8035914 -0.06546953 -3.34252724 -0.07427838 0 0 Z " fill="#440E1C" transform="translate(101,70)"/>
<path d="M0 0 C0.33 0 0.66 0 1 0 C1 2.31 1 4.62 1 7 C1.66 7 2.32 7 3 7 C2.67 7.99 2.34 8.98 2 10 C-0.64 8.02 -3.28 6.04 -6 4 C-5.34 3.34 -4.68 2.68 -4 2 C-1.875 2.375 -1.875 2.375 0 3 C0 2.01 0 1.02 0 0 Z " fill="#941C3B" transform="translate(93,82)"/>
<path d="M0 0 C-3.3 0 -6.6 0 -10 0 C-10 2.64 -10 5.28 -10 8 C-11.5625 6.8125 -11.5625 6.8125 -13 5 C-12.57894737 0.57894737 -12.57894737 0.57894737 -11 -1 C-6.17169942 -2.00210012 -4.53815546 -2.26907773 0 0 Z " fill="#3F1124" transform="translate(91,81)"/>
<path d="M0 0 C0.2475 0.639375 0.495 1.27875 0.75 1.9375 C1.81562433 4.18741541 1.81562433 4.18741541 4.125 4.75 C4.74375 4.8325 5.3625 4.915 6 5 C6 5.66 6 6.32 6 7 C2.61725734 8.12758089 1.23221777 7.81750262 -2.1875 7.0625 C-3.08855469 6.86785156 -3.98960938 6.67320313 -4.91796875 6.47265625 C-5.94857422 6.23869141 -5.94857422 6.23869141 -7 6 C-7 5.67 -7 5.34 -7 5 C-5.5459375 4.5978125 -5.5459375 4.5978125 -4.0625 4.1875 C-3.051875 3.795625 -2.04125 3.40375 -1 3 C-0.67 2.01 -0.34 1.02 0 0 Z " fill="#5A1121" transform="translate(106,60)"/>
<path d="M0 0 C2.97 0 5.94 0 9 0 C9 1.98 9 3.96 9 6 C5.56404834 4.47291037 2.88087546 2.40072955 0 0 Z " fill="#97122A" transform="translate(119,106)"/>
<path d="M0 0 C1.33617352 0.97528737 2.6688751 1.95533319 4 2.9375 C4.7425 3.48277344 5.485 4.02804688 6.25 4.58984375 C6.8275 5.05519531 7.405 5.52054688 8 6 C8 6.33 8 6.66 8 7 C5.36 7 2.72 7 0 7 C0 4.69 0 2.38 0 0 Z " fill="#1B77BE" transform="translate(0,22)"/>
<path d="M0 0 C0.33 0 0.66 0 1 0 C1 3.3 1 6.6 1 10 C-0.98 10 -2.96 10 -5 10 C-5.33 8.35 -5.66 6.7 -6 5 C-4.515 5.99 -4.515 5.99 -3 7 C-3 7.66 -3 8.32 -3 9 C-2.01 9 -1.02 9 0 9 C-0.37125 8.2575 -0.7425 7.515 -1.125 6.75 C-2 4 -2 4 -1.125 1.6875 C-0.75375 1.130625 -0.3825 0.57375 0 0 Z " fill="#2B5F8D" transform="translate(22,61)"/>
<path d="M0 0 C-0.55550695 3.59905908 -1.74887248 4.99909799 -4.5625 7.25 C-5.20316406 7.77078125 -5.84382813 8.2915625 -6.50390625 8.828125 C-6.99761719 9.21484375 -7.49132812 9.6015625 -8 10 C-8 6.45595664 -7.39010515 5.89732095 -5.125 3.3125 C-4.59132813 2.68988281 -4.05765625 2.06726563 -3.5078125 1.42578125 C-2 0 -2 0 0 0 Z " fill="#831B3A" transform="translate(96,19)"/>
<path d="M0 0 C-0.625 1.875 -0.625 1.875 -2 4 C-5.125 5.25 -5.125 5.25 -8 6 C-7.625 3.5625 -7.625 3.5625 -7 1 C-4.53721199 -0.231394 -2.7204945 -0.07159196 0 0 Z " fill="#2275C6" transform="translate(8,93)"/>
<path d="M0 0 C6.75 0.875 6.75 0.875 9 2 C9 2.66 9 3.32 9 4 C6.03 4 3.06 4 0 4 C0 2.68 0 1.36 0 0 Z " fill="#8BBAED" transform="translate(0,53)"/>
<path d="M0 0 C5.07648175 2.78387709 9.4833069 6.40829416 14 10 C13.01 10.495 13.01 10.495 12 11 C9.9912056 9.74151422 7.99370702 8.46948954 6 7.1875 C4.329375 6.12595703 4.329375 6.12595703 2.625 5.04296875 C1.75875 4.36878906 0.8925 3.69460937 0 3 C0 2.01 0 1.02 0 0 Z " fill="#05121C" transform="translate(29,42)"/>
<path d="M0 0 C0.33 0 0.66 0 1 0 C1.25 2.29296875 1.25 2.29296875 1 5 C-0.75 6.80078125 -0.75 6.80078125 -3 8.3125 C-3.7425 8.82425781 -4.485 9.33601563 -5.25 9.86328125 C-5.8275 10.23839844 -6.405 10.61351562 -7 11 C-5.5129879 6.40378078 -3.20187872 3.53027653 0 0 Z " fill="#8D1E3E" transform="translate(95,24)"/>
<path d="M0 0 C0.99 0.33 1.98 0.66 3 1 C2.57847656 1.47050781 2.15695313 1.94101563 1.72265625 2.42578125 C1.17480469 3.04839844 0.62695312 3.67101562 0.0625 4.3125 C-0.48277344 4.92738281 -1.02804688 5.54226562 -1.58984375 6.17578125 C-3.20081559 8.05241958 -3.20081559 8.05241958 -4 11 C-5.32 10.67 -6.64 10.34 -8 10 C-7.59007812 9.52949219 -7.18015625 9.05898437 -6.7578125 8.57421875 C-6.21898437 7.95160156 -5.68015625 7.32898438 -5.125 6.6875 C-4.59132812 6.07261719 -4.05765625 5.45773438 -3.5078125 4.82421875 C-1.8359553 2.86501788 -1.8359553 2.86501788 0 0 Z " fill="#0A0C15" transform="translate(45,78)"/>
<path d="M0 0 C2.5625 2.25 2.5625 2.25 5 5 C4.8125 7.3125 4.8125 7.3125 4 9 C3.34 9 2.68 9 2 9 C0.66666667 7.66666667 -0.66666667 6.33333333 -2 5 C-1.34 5 -0.68 5 0 5 C0 3.35 0 1.7 0 0 Z " fill="#762030" transform="translate(110,59)"/>
<path d="M0 0 C2.475 0.495 2.475 0.495 5 1 C4.67 2.65 4.34 4.3 4 6 C2.68 6 1.36 6 0 6 C0 4.02 0 2.04 0 0 Z " fill="#33242A" transform="translate(78,57)"/>
<path d="M0 0 C0.33 0 0.66 0 1 0 C1 2.97 1 5.94 1 9 C2.32 9 3.64 9 5 9 C5 10.65 5 12.3 5 14 C3.68 14 2.36 14 1 14 C1.33 13.01 1.66 12.02 2 11 C1.34 10.67 0.68 10.34 0 10 C0 6.7 0 3.4 0 0 Z " fill="#4373B7" transform="translate(23,61)"/>
<path d="M0 0 C3.375 0.3125 3.375 0.3125 7 1 C7.66 1.99 8.32 2.98 9 4 C9.99 4.66 10.98 5.32 12 6 C5.07 5.505 5.07 5.505 -2 5 C-2 4.67 -2 4.34 -2 4 C0.64 4 3.28 4 6 4 C6 3.34 6 2.68 6 2 C4.02 2 2.04 2 0 2 C0 1.34 0 0.68 0 0 Z " fill="#66434D" transform="translate(90,61)"/>
<path d="M0 0 C0.66 0.33 1.32 0.66 2 1 C2 1.33 2 1.66 2 2 C2.66 2.33 3.32 2.66 4 3 C3.67 3.66 3.34 4.32 3 5 C0.93359375 5.4140625 0.93359375 5.4140625 -1.5625 5.625 C-2.38878906 5.69976562 -3.21507813 5.77453125 -4.06640625 5.8515625 C-5.02353516 5.92503906 -5.02353516 5.92503906 -6 6 C-6 5.34 -6 4.68 -6 4 C-4.03852126 2.61061923 -2.03833424 1.2739589 0 0 Z " fill="#81152D" transform="translate(101,41)"/>
<path d="M0 0 C0 0.66 0 1.32 0 2 C-0.66 2 -1.32 2 -2 2 C-2.33 2.66 -2.66 3.32 -3 4 C-6.3 3.34 -9.6 2.68 -13 2 C-13 1.67 -13 1.34 -13 1 C-8.61414671 0.29826347 -4.44209357 -0.10834375 0 0 Z " fill="#7BAEE4" transform="translate(15,56)"/>
<path d="M0 0 C-5.75 5 -5.75 5 -8 5 C-8 3.68 -8 2.36 -8 1 C-4.93251126 -0.86240388 -3.40254489 -1.2151946 0 0 Z " fill="#1F68B8" transform="translate(11,101)"/>
<path d="M0 0 C-1.5625 2.4375 -1.5625 2.4375 -4 5 C-7.75 5.8125 -7.75 5.8125 -11 6 C-10.38125 5.71125 -9.7625 5.4225 -9.125 5.125 C-6.86674235 4.06279958 -6.86674235 4.06279958 -5 2 C-6.32 1.34 -7.64 0.68 -9 0 C-2.25 -1.125 -2.25 -1.125 0 0 Z " fill="#3A6CC8" transform="translate(45,72)"/>
<path d="M0 0 C4.24822374 0.47202486 6.19989709 2.96655518 9 6 C6.75 6.3125 6.75 6.3125 4 6 C0 1.78378378 0 1.78378378 0 0 Z " fill="#124363" transform="translate(4,23)"/>
<path d="M0 0 C-3.59258142 2.89158993 -5.17748885 4.05306524 -9.875 3.75 C-10.90625 3.5025 -11.9375 3.255 -13 3 C-8.8341563 0.22277086 -4.9360889 -1.89849573 0 0 Z " fill="#3A65B4" transform="translate(52,69)"/>
<path d="M0 0 C0.99 0 1.98 0 3 0 C3 2.64 3 5.28 3 8 C2.01 8 1.02 8 0 8 C0 5.36 0 2.72 0 0 Z " fill="#4DA3E6" transform="translate(0,45)"/>
<path d="M0 0 C3.93774177 -0.36630156 5.56539771 -0.30233203 8.875 2 C9.926875 2.99 9.926875 2.99 11 4 C3.49230769 3.38461538 3.49230769 3.38461538 1 1.4375 C0.67 0.963125 0.34 0.48875 0 0 Z " fill="#771327" transform="translate(96,82)"/>
<path d="M0 0 C-1 2 -1 2 -3.8125 3.125 C-7 4 -7 4 -11 4 C-11 3.34 -11 2.68 -11 2 C-7.17679443 0.57741188 -4.08718695 -0.24042276 0 0 Z " fill="#69A8E8" transform="translate(13,80)"/>
<path d="M0 0 C2.97 0.495 2.97 0.495 6 1 C5.67 1.99 5.34 2.98 5 4 C2.69 4.33 0.38 4.66 -2 5 C-1.01 4.01 -0.02 3.02 1 2 C0.67 1.34 0.34 0.68 0 0 Z " fill="#320B16" transform="translate(93,66)"/>
<path d="M0 0 C1.98 0 3.96 0 6 0 C4.95125002 2.62187494 4.35068687 3.79371361 1.875 5.25 C1.25625 5.4975 0.6375 5.745 0 6 C0 4.02 0 2.04 0 0 Z " fill="#2A172E" transform="translate(60,50)"/>
<path d="M0 0 C0.99 0.33 1.98 0.66 3 1 C-0.07999946 4.67230705 -2.2482602 5.56802365 -7 6 C-4.74259377 3.66475218 -2.7194239 1.81294927 0 0 Z " fill="#9E1630" transform="translate(108,38)"/>
<path d="M0 0 C0.33 0 0.66 0 1 0 C0.52060632 4.71403788 0.03165952 8.66579301 -2 13 C-2.66 13 -3.32 13 -4 13 C-2.93204565 8.49933525 -1.85961414 4.2505466 0 0 Z " fill="#2B1024" transform="translate(72,25)"/>
<path d="M0 0 C1.98 0 3.96 0 6 0 C6.33 1.65 6.66 3.3 7 5 C2.25 3.125 2.25 3.125 0 2 C0 1.34 0 0.68 0 0 Z " fill="#6A2D3B" transform="translate(100,55)"/>
<path d="M0 0 C6.75 0.75 6.75 0.75 9 3 C6.21176345 4.0326802 5.1322726 4.04509293 2.25 3.0625 C1.5075 2.711875 0.765 2.36125 0 2 C0 1.34 0 0.68 0 0 Z " fill="#1C71B9" transform="translate(16,50)"/>
<path d="M0 0 C0.66 0.33 1.32 0.66 2 1 C1.67 1.99 1.34 2.98 1 4 C0.34 4 -0.32 4 -1 4 C-1.33 4.66 -1.66 5.32 -2 6 C-3.65 4.35 -5.3 2.7 -7 1 C-2.25 1.875 -2.25 1.875 0 3 C0 2.01 0 1.02 0 0 Z " fill="#103855" transform="translate(29,37)"/>
<path d="M0 0 C0 0.99 0 1.98 0 3 C-1.32 3.33 -2.64 3.66 -4 4 C-4 2.68 -4 1.36 -4 0 C-5.32 -0.33 -6.64 -0.66 -8 -1 C-4.59745511 -2.2151946 -3.06748874 -1.86240388 0 0 Z " fill="#4776AB" transform="translate(36,70)"/>
<path d="M0 0 C1.98 0 3.96 0 6 0 C6 1.98 6 3.96 6 6 C3.48225379 4.7411269 1.91585077 3.04357415 0 1 C0 0.67 0 0.34 0 0 Z " fill="#12161D" transform="translate(50,62)"/>
<path d="M0 0 C1.70884005 1.62339805 3.37446717 3.29319053 5 5 C5 5.66 5 6.32 5 7 C3.1875 6.8125 3.1875 6.8125 1 6 C-0.75 3.4375 -0.75 3.4375 -2 1 C-1.34 0.67 -0.68 0.34 0 0 Z " fill="#DAD0D1" transform="translate(112,57)"/>
<path d="M0 0 C0.66 0 1.32 0 2 0 C2 1.98 2 3.96 2 6 C0.68 6 -0.64 6 -2 6 C-1.125 1.125 -1.125 1.125 0 0 Z " fill="#51364E" transform="translate(62,54)"/>
<path d="M0 0 C1.98 0 3.96 0 6 0 C6 0.99 6 1.98 6 3 C3.69 3 1.38 3 -1 3 C-0.67 2.01 -0.34 1.02 0 0 Z " fill="#8EBBEE" transform="translate(3,42)"/>
<path d="M0 0 C1.32 0 2.64 0 4 0 C3.67 1.65 3.34 3.3 3 5 C2.01 5 1.02 5 0 5 C0 3.35 0 1.7 0 0 Z " fill="#18466E" transform="translate(28,70)"/>
<path d="M0 0 C0.66 0.66 1.32 1.32 2 2 C1.34 3.98 0.68 5.96 0 8 C-1.65 7.67 -3.3 7.34 -5 7 C-4.67 6.34 -4.34 5.68 -4 5 C-2.68 5 -1.36 5 0 5 C0 3.35 0 1.7 0 0 Z " fill="#1B629E" transform="translate(28,48)"/>
<path d="M0 0 C1.98 0 3.96 0 6 0 C6 0.99 6 1.98 6 3 C4.02 3 2.04 3 0 3 C0 2.01 0 1.02 0 0 Z " fill="#CBC4C7" transform="translate(68,60)"/>
<path d="M0 0 C0.99 0 1.98 0 3 0 C3 3.3 3 6.6 3 10 C2.01 10 1.02 10 0 10 C0.33 9.67 0.66 9.34 1 9 C1.14636054 5.63370749 1.07193479 3.21580438 0 0 Z " fill="#2F151E" transform="translate(84,54)"/>
<path d="M0 0 C2.31 0 4.62 0 7 0 C7 0.66 7 1.32 7 2 C4.36 2.33 1.72 2.66 -1 3 C-0.67 2.01 -0.34 1.02 0 0 Z " fill="#E6E4E4" transform="translate(98,53)"/>
<path d="M0 0 C3.81684226 1.55500981 6.19195732 4.03595495 9 7 C5.56072421 5.7580393 2.74792181 4.44259716 0 2 C0 1.34 0 0.68 0 0 Z " fill="#165D8F" transform="translate(0,15)"/>
<path d="M0 0 C2.35953094 2.35953094 2.49141413 3.77895617 3 7 C1.68 6.67 0.36 6.34 -1 6 C-1.042721 4.33388095 -1.04063832 2.66617115 -1 1 C-0.67 0.67 -0.34 0.34 0 0 Z " fill="#314962" transform="translate(49,59)"/>
<path d="M0 0 C2.31 0.33 4.62 0.66 7 1 C6.01 2.485 6.01 2.485 5 4 C2.375 4.1875 2.375 4.1875 0 4 C0 2.68 0 1.36 0 0 Z " fill="#12486B" transform="translate(0,57)"/>
</svg>
